<?xml version="1.0" encoding="UTF-8"?>
<svg id="Layer_2" data-name="Layer 2" xmlns="http://www.w3.org/2000/svg" viewBox="0 0 12.34 16.57">
  <defs>
    <style>
      .cls-1 {
        fill: #a6d3ba;
      }
    </style>
  </defs>
  <g id="Layer_1-2" data-name="Layer 1">
    <path class="cls-1" d="M12.23,14.32c-.7-2.44-2.85-5.33-3.69-7.83l-.02-6.49H3.78v6.46c-.91,2.56-2.78,5.23-3.6,7.76C0,14.76-.01,15.23,0,15.76c0,.09,0,.17.01.28,0,.3.24.53.53.53h11.14c.29,0,.53-.23.53-.53.01-.11.03-.19.05-.28.1-.5.11-.88-.04-1.44ZM9.06,10.28c-1.02-.09-2.16.47-3.1.55-.37.02-2.78-.34-2.8-.62.18-.51,1.65-2.87,1.65-3.15V.96h2.61v5.69c0,.37,1.8,3.5,1.64,3.63Z"/>
  </g>
</svg>