<?xml version="1.0" encoding="UTF-8"?>
<svg id="Layer_2" data-name="Layer 2" xmlns="http://www.w3.org/2000/svg" viewBox="0 0 24.18 25.66">
  <defs>
    <style>
      .cls-1 {
        fill: #a6d3ba;
      }
    </style>
  </defs>
  <g id="Layer_1-2" data-name="Layer 1">
    <path class="cls-1" d="M24.15,20.25c0-.1-.02-.19-.04-.28,0-.08-.02-.16-.04-.24-.03-.16-.07-.32-.13-.47-.05-.15-.12-.31-.19-.47-.19-.39-.46-.73-.65-.94h-.03c-.08-.09-.15-.19-.24-.26-.05-.05-.07-.08-.07-.08-.46-.4-1.04-.7-1.37-1.18-.12-.18-.21-.39-.24-.64-.19-1.45.14-3.27-.01-4.77.8-.06.93-1.12.66-1.7-.23-.51-1.73-.08-2.23-.29.03-1.6-.62-2.36-1.99-3.04.69-1.23,1.44-2.33,1.24-3.83-.33-2.43-3.27-2.83-4.05-.55-.54,1.59.35,3.13,1.26,4.39-1.08.86-2.72.99-3.75-.01.84-1.3,1.7-2.73,1.22-4.35-.62-2.05-3.35-2.05-3.99.03-.47,1.55.31,3.1,1.19,4.33-1.1.95-2.62.9-3.75,0,1.05-1.36,2.07-3.66.79-5.17-1.25-1.45-3.36-.55-3.6,1.21-.2,1.45.48,2.85,1.35,3.96-1.67,1.01-1.19,3-1.25,4.65-.5,0-1.31-.16-1.45.49-.12.57.34.53.41,1.01.19,1.41-.15,3.24-.01,4.7.01.1-.05.15-.1.21h-.01c-.06.06-.35.29-.64.51-.47.41-1.11,1.07-1.65,1.97-.01,0-.01.01-.01.01-.07.12-.14.23-.2.36,0,0,0,0-.01.02-.07.13-.14.27-.2.42-.24.57-.37,1.2-.37,1.85s.12,1.25.35,1.8c.27.68.71,1.28,1.25,1.76h17.67c1.51,0,2.84-.69,3.74-1.76h.01s0-.01.01-.02c.55-.67.94-1.47,1.07-2.37.02-.12.04-.23.05-.34.02-.14.03-.28.03-.42,0-.17-.01-.34-.03-.5ZM15.98,3.97c-.32-.7-.55-1.65-.18-2.37.52-1.02,1.84-.62,1.99.45.18,1.26-.32,2.04-.93,3.07-.2.13-.8-.94-.88-1.15ZM10.7,1.42c.38-.46,1.11-.54,1.54-.12.85.84.12,3.11-.74,3.82-.87-.76-1.59-2.76-.8-3.7ZM5.12,2.09c.25-1.25,1.67-1.51,2.09-.31.42,1.19-.29,2.36-.89,3.34-.17.12-.7-.76-.78-.94-.29-.6-.56-1.43-.42-2.09ZM5.08,8.09c.02-.23.26-.74.41-.94.75-.97,1.01-.26,1.8.07,1.4.58,2.96.33,4.11-.63,1.26.86,2.64,1.23,4.14.7.51-.19.87-.57,1.37-.72,1.04.63,1.94.98,1.73,2.41-.46.08-1.55-.26-1.67.36-.11.63-.1,1.44.63,1.58-.11,1.45.13,3.05,0,4.48-.03.34-.12.61-.24.83-.39.7-1.14.98-1.75,1.67-.51.58-.81,1.29-1.16,1.97-.02.02-.03.04-.04.06-.5-1.37-1.28-3.14-.99-4.64.05-.27.73-.88-.02-1.22-.27-.13-2.56-.14-2.95-.09-.46.06-.69.44-.56.87.05.15.25.21.29.44.23,1.15-.43,3.51-.93,4.6-.04.09-.06.21-.16.23-.01.02-.03.02-.05.02-.03-.13-.07-.25-.12-.36-.47-1.29-1.47-2.14-2.58-2.94l-.02-4.9c1.11-1.22-.04-1.56-1.24-1.39.07-.77-.11-1.72,0-2.46ZM11.02,15.13h1.46v1.52l.74,2.66h-2.82c.45-1.42.78-2.66.62-4.18ZM1.42,20.14c.11-.32.26-.61.45-.89.43-.62.99-1.12,1.42-1.44.09-.06.18-.12.24-.17.13-.09.23-.16.3-.2h.01c.06-.05.1-.07.1-.07.11-.1.19-.23.19-.41v-5.27h1.36v5.58s.04.09.1.15c.29.23,1.1.55,1.63,1.16.34.39.76,1.05.88,1.56H1.42ZM22.92,19.21c-.81-.16-1.63-.28-2.46-.22-.53.05-1.05.27-1.57.32-1,.09-2.14-.07-3.18,0-.31-.28,2.06-2.07,2.2-2.24.13-.17.43-.84.5-1.15,0-.04.02-.08.02-.11v-4.96h1.88v5.17c0,.08.33.82.42.94.14.2,2.5,1.96,2.19,2.25Z"/>
  </g>
</svg>