<svg width="139" height="112" viewBox="0 0 139 112" fill="none" xmlns="http://www.w3.org/2000/svg">
<path d="M99.8651 111.39L19.7652 106.754L21.3638 74.5002L101.893 71L99.8651 111.39Z" fill="#005645"/>
<path d="M134.157 80.8397L137.293 43.7552L5.0149 37.1388L0.983014 66.6521L134.157 80.8397Z" fill="#005645"/>
<path d="M39.0163 96.5212C36.0634 96.3173 33.6692 94.4079 33.8868 91.2554C34.1334 87.6839 37.405 85.885 40.6972 86.1122C44.1889 86.3533 45.9954 89.2245 45.8246 91.6986C45.5987 94.9708 41.9494 96.7237 39.0163 96.5212ZM41.1309 92.8982C41.1929 92.0003 41.0335 88.5011 39.6767 88.4074C39.0183 88.3619 38.6164 88.9557 38.6164 89.537C38.6094 90.7996 38.7565 93.897 40.1277 94.0719C40.8831 94.1641 41.0868 93.5367 41.1309 92.8982ZM52.1176 92.2533L52.0116 93.7897C51.878 95.7251 52.5798 95.4327 52.5274 96.1909C52.442 97.428 49.7911 97.2049 48.973 97.1484C48.1749 97.0933 46.1398 96.9528 46.2224 95.7556C46.2885 94.7979 47.1471 95.7192 47.342 93.768L47.6284 90.7807C47.7702 89.3069 46.5201 89.7018 46.5931 88.6443C46.6661 87.5868 51.324 86.906 51.7231 86.9335C52.162 86.9638 52.4152 87.3622 52.3876 87.7613C52.3794 87.881 52.3512 87.9993 52.3429 88.119C52.3264 88.3585 52.4068 88.6447 52.7061 88.6653C53.0254 88.6874 53.2339 88.2808 53.6618 87.8893C54.0884 87.5178 54.7159 87.1401 55.8532 87.2186C59.9834 87.5038 59.0055 91.5059 58.9956 94.5525C58.9866 96.1356 59.8294 95.8329 59.7702 96.6909C59.7454 97.05 59.7674 97.8936 56.0163 97.6346C55.298 97.585 53.3798 97.4927 53.4569 96.3754C53.5065 95.6571 54.1415 96.0417 54.3308 94.7517C54.5284 93.3419 55.3074 90.1881 53.4319 90.0586C52.1549 89.9705 52.1796 91.3555 52.1176 92.2533ZM72.922 89.2791L72.5377 94.8458C72.3752 97.2002 73.6116 96.4235 73.5386 97.481C73.445 98.8378 70.911 98.6628 70.0131 98.6009C66.5813 98.3639 66.4953 97.5762 66.5284 97.0973C66.578 96.379 67.3988 96.3956 67.6809 95.7936C67.9885 95.1131 68.2281 92.2228 68.0596 91.4694C67.9283 90.7587 66.8955 90.9079 66.9575 90.01C67.0553 88.5934 72.1646 88.3447 72.3641 88.3584C72.9627 88.3998 72.9509 88.8601 72.922 89.2791ZM73.0619 85.8004C72.9545 87.3567 70.2134 87.5685 69.0761 87.4899C68.2381 87.4321 67.3664 86.991 67.4339 86.0133C67.5248 84.6965 70.1957 84.3396 71.2133 84.4098C72.0114 84.4649 73.1308 84.8028 73.0619 85.8004ZM80.6469 91.7971L80.4417 94.77C80.3494 96.1068 80.8861 96.4646 81.4248 96.5018C82.0433 96.5445 82.4341 96.1104 82.7933 96.1352C83.1923 96.1627 83.4331 96.7407 83.4083 97.0998C83.3174 98.4167 80.9629 99.4169 78.9477 99.2778C77.9301 99.2075 75.4065 98.5923 75.6255 95.4198L75.9093 91.3096C75.9589 90.5913 75.9692 90.7324 75.0713 90.6704C74.0138 90.5974 74.0895 90.6627 74.1542 89.725C74.1735 89.4456 74.1288 89.222 74.3793 89.0789L79.1282 86.4999C79.6063 86.2522 79.5823 86.3107 80.1808 86.352C80.9789 86.4071 81.0244 86.3301 80.961 87.2479C80.8453 88.9239 80.6884 88.873 81.6262 88.9377L83.0229 89.0341C83.8808 89.0933 83.8767 89.1532 83.8147 90.0511C83.7362 91.1884 83.591 91.2585 82.8129 91.2048L81.4362 91.1098C80.7378 91.0616 80.6965 91.0788 80.6469 91.7971ZM89.0967 97.5527C89.0044 98.8895 87.8526 99.8925 86.5158 99.8002C85.179 99.708 84.1759 98.5561 84.2682 97.2193C84.3605 95.8825 85.5123 94.8794 86.8491 94.9717C88.1859 95.064 89.189 96.2158 89.0967 97.5527Z" fill="white"/>
<path d="M34.9218 49.4233C35.6983 49.4975 36.6093 49.8458 36.9079 49.8743C37.2862 49.9104 37.6295 49.6821 38.0077 49.7182C38.9236 49.8058 39.6643 51.7249 39.5863 52.5412C39.5349 53.0788 39.039 53.4332 38.5213 53.3837C37.3865 53.2753 36.8997 51.6415 36.0237 51.5578C35.6653 51.5236 35.2784 51.7879 35.2423 52.1662C35.1205 53.4404 39.4777 54.0979 39.1828 57.1839C39.0039 59.0554 37.0685 60.1763 34.9979 59.9784C34.1816 59.9004 32.7331 59.5008 32.4942 59.4779C32.2154 59.4513 31.9689 59.5081 31.7101 59.4834C31.3119 59.4453 31.1185 59.3666 30.8702 59.0214C30.4258 58.4163 30.0365 57.2339 30.1088 56.4774C30.1583 55.9597 30.3774 55.5588 30.9548 55.614C31.8308 55.6977 32.4388 57.7448 33.5537 57.8514C33.9519 57.8894 34.3492 57.7265 34.3911 57.2885C34.5034 56.1138 30.6145 55.6015 30.9284 52.3165C31.1187 50.3256 32.8711 49.2273 34.9218 49.4233ZM40.1785 55.1695C40.4525 52.3025 43.1638 50.211 46.5085 50.5307C49.4949 50.8161 50.9098 52.6189 50.7766 54.0125C50.6701 55.1275 49.752 55.9036 48.6371 55.7971C46.4869 55.5916 47.7183 53.218 46.1455 53.0677C45.2695 52.9839 44.7061 53.8342 44.6299 54.6306C44.4891 56.1038 45.4414 57.7017 47.0143 57.852C48.2685 57.9719 48.7361 57.4942 49.1542 57.5342C49.6918 57.5855 49.993 58.2171 49.9474 58.6949C49.8351 59.8695 47.8987 61.2114 45.1114 60.945C42.1051 60.6577 39.8873 58.2156 40.1785 55.1695ZM57.3241 52.5087L56.7932 58.0633C56.5687 60.4126 57.8251 59.6688 57.7243 60.724C57.5949 62.0778 55.0664 61.8362 54.1705 61.7505C50.7461 61.4233 50.681 60.6335 50.7266 60.1557C50.7951 59.4389 51.6152 59.4771 51.9131 58.8828C52.2385 58.2107 52.5543 55.3276 52.4057 54.5701C52.2931 53.8561 51.2568 53.9781 51.3424 53.0822C51.4775 51.6686 56.5915 51.5546 56.7906 51.5737C57.3879 51.6307 57.364 52.0906 57.3241 52.5087ZM57.5556 49.0349C57.4072 50.5879 54.6615 50.7273 53.5267 50.6188C52.6905 50.5389 51.8307 50.075 51.9239 49.0994C52.0495 47.7854 54.7289 47.499 55.7443 47.5961C56.5407 47.6722 57.6508 48.0395 57.5556 49.0349ZM67.8488 58.2159L63.5285 57.803C63.3095 57.782 62.9967 57.6919 62.9643 58.0303C62.8692 59.0258 64.0834 59.9857 65.0191 60.0751C66.5123 60.2178 67.3346 59.3923 67.7527 59.4322C68.1708 59.4722 68.4702 60.1236 68.434 60.5019C68.2875 62.0349 65.3737 62.8816 63.5819 62.7103C59.9982 62.3678 58.394 59.6026 58.6395 57.0343C58.9325 53.9683 61.7537 51.9877 64.7401 52.2732C68.1247 52.5966 69.3686 55.3475 69.2259 56.8407C69.1003 58.1547 68.4859 58.2768 67.8488 58.2159ZM64.2687 55.945C64.8062 55.9963 65.4319 56.1767 65.5004 55.4599C65.5689 54.7432 65.1842 54.1439 64.4475 54.0735C63.7905 54.0107 63.1883 54.6362 63.1274 55.2733C63.0589 55.9901 63.751 55.8955 64.2687 55.945ZM75.3144 58.6481L75.1679 60.1811C74.9833 62.1123 75.6926 61.8386 75.6203 62.5951C75.5023 63.8295 72.8582 63.5366 72.0419 63.4586C71.2455 63.3825 69.2148 63.1884 69.3289 61.9938C69.4203 61.0382 70.2543 61.9818 70.5005 60.0364L70.8655 57.0576C71.0462 55.5882 69.786 55.9499 69.8869 54.8947C69.9877 53.8395 74.662 53.2817 75.0602 53.3198C75.4982 53.3616 75.7408 53.7665 75.7027 54.1647C75.6913 54.2842 75.66 54.4017 75.6485 54.5212C75.6257 54.7601 75.6986 55.0483 75.9973 55.0769C76.3158 55.1073 76.535 54.7064 76.9731 54.3263C77.4093 53.9662 78.0466 53.6052 79.1814 53.7136C83.3026 54.1075 82.2195 58.0825 82.1294 61.1278C82.0786 62.7101 82.9292 62.4297 82.8473 63.2858C82.8131 63.6442 82.8128 64.488 79.0699 64.1303C78.3531 64.0618 76.438 63.9189 76.5446 62.804C76.6131 62.0873 77.2377 62.4885 77.461 61.2039C77.6956 59.7999 78.5575 56.6677 76.6861 56.4888C75.4119 56.367 75.4 57.7522 75.3144 58.6481ZM83.7689 59.3356C84.0429 56.4687 86.7542 54.3771 90.099 54.6968C93.0853 54.9822 94.5002 56.785 94.367 58.1787C94.2605 59.2936 93.3425 60.0698 92.2276 59.9632C90.0774 59.7577 91.3088 57.3841 89.7359 57.2338C88.8599 57.1501 88.2965 58.0003 88.2204 58.7967C88.0796 60.27 89.0319 61.8678 90.6047 62.0181C91.859 62.138 92.3265 61.6603 92.7446 61.7003C93.2822 61.7517 93.5835 62.3832 93.5378 62.861C93.4255 64.0357 91.4891 65.3775 88.7018 65.1111C85.6955 64.8238 83.4778 62.3817 83.7689 59.3356ZM103.973 61.6684L99.653 61.2555C99.434 61.2346 99.1211 61.1444 99.0888 61.4829C98.9936 62.4784 100.208 63.4382 101.144 63.5277C102.637 63.6704 103.459 62.8449 103.877 62.8848C104.295 62.9248 104.595 63.5762 104.558 63.9545C104.412 65.4875 101.498 66.3341 99.7063 66.1629C96.1227 65.8204 94.5185 63.0552 94.7639 60.4869C95.057 57.4209 97.8782 55.4403 100.865 55.7257C104.249 56.0492 105.493 58.8 105.35 60.2932C105.225 61.6072 104.61 61.7293 103.973 61.6684ZM100.393 59.3975C100.931 59.4489 101.556 59.6292 101.625 58.9125C101.693 58.1958 101.309 57.5965 100.572 57.5261C99.915 57.4633 99.3127 58.0888 99.2518 58.7259C99.1833 59.4426 99.8755 59.3481 100.393 59.3975Z" fill="white"/>
<path d="M131.765 34.8941L131.023 5.68959e-06L9.76514 14.0244L14.0042 41L131.765 34.8941Z" fill="#005645"/>
<path d="M33.2879 22.5336C33.1822 21.2781 32.4571 20.2954 31.1219 20.4079C30.3446 20.4734 30.3847 20.7108 30.4183 21.1094L30.67 24.0988C30.7053 24.5174 30.5645 24.9908 31.6407 24.9002C32.9561 24.7894 33.3903 23.7493 33.2879 22.5336ZM26.5177 29.6068L25.8613 21.8144C25.7355 20.3197 23.9492 21.2729 23.8434 20.0174C23.7763 19.2202 24.6397 18.9869 25.2575 18.9349C25.7558 18.8929 26.2374 18.8925 26.7357 18.8505C29.6255 18.6071 31.7527 18.1269 32.1911 18.09C34.9015 17.8617 37.6331 19.0767 37.8849 22.0661C38.135 25.0356 35.7582 26.8415 32.988 27.0748C32.3901 27.1252 31.7838 27.0759 31.2457 27.1212C31.0066 27.1413 30.9353 27.2477 30.9537 27.4669L31.0511 28.6228C31.3207 31.109 32.6882 29.9501 32.7856 31.106C32.8947 32.4014 30.0299 32.7029 29.1331 32.7785C28.296 32.849 25.3448 33.0775 25.2357 31.782C25.1434 30.6859 26.6553 31.241 26.5177 29.6068ZM44.1845 21.8567L44.6109 26.9188C44.678 27.7159 44.8419 28.9465 45.9181 28.8559C47.353 28.735 46.9959 26.8785 46.9154 25.9218C46.86 25.2642 46.8077 24.4055 46.6544 23.7762C46.411 22.7931 45.463 23.2142 45.3925 22.3771C45.2935 21.2013 49.2825 20.6646 50.0398 20.6008C50.7573 20.5404 51.0915 20.9338 51.1502 21.6313C51.2039 22.269 51.2161 22.8902 51.2698 23.5279L51.6072 27.5338C51.7079 28.7295 52.757 28.0792 52.8376 29.0358C52.9517 30.391 49.4561 31.0668 48.36 31.1591C46.8254 31.2883 47.7411 30.007 46.9439 30.0741C46.4856 30.1127 45.7891 31.3756 44.0353 31.5233C40.2487 31.8422 40.3158 28.826 40.064 25.8366C39.8072 22.7874 38.5445 24.2384 38.4338 22.9231C38.3263 21.6476 43.3435 21.1648 43.5029 21.1514C44.061 21.1044 44.1426 21.3585 44.1845 21.8567ZM59.0072 22.7157L59.2573 25.6852C59.3698 27.0204 59.9547 27.2923 60.4928 27.247C61.1106 27.195 61.4307 26.7064 61.7894 26.6762C62.188 26.6426 62.514 27.1771 62.5442 27.5358C62.655 28.8512 60.4804 30.1984 58.4676 30.368C57.4512 30.4536 54.8633 30.23 54.5964 27.0612L54.2506 22.9557C54.1902 22.2383 54.2218 22.3761 53.325 22.4517C52.2687 22.5406 52.3535 22.5937 52.2746 21.657C52.2511 21.378 52.1729 21.1638 52.3986 20.9842L56.6991 17.7117C57.134 17.3941 57.1191 17.4556 57.717 17.4052C58.5141 17.3381 58.5473 17.255 58.6245 18.1718C58.7655 19.8458 58.6027 19.8194 59.5394 19.7405L60.9345 19.623C61.7914 19.5508 61.7965 19.6106 61.872 20.5075C61.9677 21.6434 61.8349 21.7349 61.0576 21.8004L59.6825 21.9162C58.985 21.9749 58.9468 21.9982 59.0072 22.7157ZM72.8669 18.618C73.6441 18.5526 74.6026 18.7327 74.9016 18.7076C75.2802 18.6757 75.5773 18.3897 75.956 18.3578C76.8727 18.2806 77.9439 20.0369 78.0127 20.854C78.058 21.3921 77.6332 21.8293 77.1151 21.873C75.9791 21.9686 75.2087 20.4479 74.3318 20.5218C73.9731 20.552 73.6396 20.8812 73.6715 21.2598C73.7789 22.5353 78.1835 22.4052 78.4437 25.4942C78.6015 27.3676 76.897 28.8158 74.8243 28.9903C74.0072 29.0592 72.5106 28.9243 72.2715 28.9444C71.9925 28.9679 71.76 29.0678 71.5009 29.0896C71.1023 29.1232 70.898 29.0802 70.5921 28.7848C70.0469 28.2687 69.453 27.1747 69.3892 26.4174C69.3456 25.8992 69.4897 25.4656 70.0676 25.4169C70.9445 25.3431 71.9079 27.249 73.0239 27.155C73.4225 27.1214 73.7844 26.8902 73.7475 26.4518C73.6484 25.2759 69.7305 25.4654 69.4536 22.177C69.2857 20.1841 70.8142 18.7909 72.8669 18.618ZM84.9879 28.1343C82.0383 28.3827 79.3812 26.8604 79.116 23.7115C78.8155 20.1442 81.7749 17.8677 85.0632 17.5908C88.5509 17.297 90.7738 19.8595 90.9819 22.3308C91.2572 25.5992 87.9175 27.8876 84.9879 28.1343ZM86.5257 24.2315C86.4502 23.3346 85.7595 19.9005 84.4043 20.0146C83.7467 20.07 83.44 20.7181 83.5285 21.2926C83.714 22.5415 84.3312 25.5804 85.7131 25.5443C86.4737 25.5204 86.5795 24.8692 86.5257 24.2315ZM92.8377 23.4389L92.6833 21.6054C92.4701 19.0744 91.5576 20.1548 91.4737 19.1583C91.3495 17.6835 96.245 16.7092 96.2848 16.7059C96.7831 16.6639 96.8598 17.099 96.8951 17.5175C96.9152 17.7567 96.8926 18.441 97.3111 18.4057C97.7097 18.3722 98.4173 16.5263 100.769 16.3282C103.141 16.1284 103.31 17.9005 103.728 17.8652C104.047 17.8384 105.034 15.969 107.087 15.7961C108.98 15.6366 110.243 16.5739 110.407 18.527L110.762 22.7321C110.859 23.888 111.605 23.9256 111.653 24.5035C111.759 25.7591 109.492 26.0102 108.715 26.0757C108.057 26.1311 105.734 26.1863 105.647 25.1499C105.584 24.4126 106.284 24.3737 106.186 23.2178L106.035 21.4242C105.965 20.5871 105.923 18.9047 104.787 19.0004C103.671 19.0944 103.885 20.4412 103.947 21.1785L104.051 22.4142C104.258 24.8655 104.94 24.3865 105.002 25.1239C105.106 26.3596 102.716 26.5809 101.999 26.6413C98.9895 26.8948 98.7831 26.3502 98.756 25.7905C98.687 24.7326 99.7539 25.4857 99.4944 23.1191L99.3987 21.9831C99.3383 21.2657 99.2869 19.4636 98.1509 19.5593C97.0348 19.6533 97.2486 21.0001 97.3107 21.7375L97.4467 23.3518C97.6011 25.1853 98.1291 25.0204 98.1896 25.7379C98.2332 26.256 97.8336 26.9922 95.1033 27.2221C94.326 27.2876 91.976 27.5056 91.887 26.4493C91.8115 25.5525 93.0476 25.9301 92.8377 23.4389ZM121.158 20.1906L116.834 20.5548C116.615 20.5733 116.291 20.5403 116.319 20.8791C116.403 21.8756 117.769 22.6035 118.706 22.5247C120.2 22.3988 120.862 21.4398 121.281 21.4046C121.699 21.3693 122.11 21.9569 122.142 22.3356C122.271 23.8702 119.555 25.2229 117.762 25.3739C114.174 25.6761 112.103 23.2414 111.886 20.6705C111.628 17.6013 114.05 15.1493 117.04 14.8976C120.428 14.6122 122.142 17.0971 122.268 18.5918C122.379 19.9071 121.796 20.1368 121.158 20.1906ZM117.231 18.5946C117.769 18.5493 118.417 18.6151 118.356 17.8977C118.296 17.1802 117.81 16.6591 117.073 16.7212C116.415 16.7766 115.934 17.4995 115.988 18.1373C116.048 18.8547 116.713 18.6382 117.231 18.5946Z" fill="white"/>
</svg>
