<?xml version="1.0" encoding="UTF-8"?><svg id="Layer_1" xmlns="http://www.w3.org/2000/svg" viewBox="0 0 910.4087327978 296.8540102688"><defs><style>.cls-1{fill:#005645;}</style></defs><path class="cls-1" d="M910.4087327978,296.8540102688v-75.9010162354l-352.5400390625-.0460128784c.6500244141-29.5480041504-5.0200195312-62.5119934082-9.6400146484-84.0729980469-2.7598876953-13.25-5.2099609375-22.2070007324-5.5799560547-23.5v-.1839981079c9.7299804688-3.4630050659,21.8200683594-9.4650039673,26.6600341797-16.8979034424,7.9799804688-12.0961990356,11.5300292969-51.3394966125,7.2899169922-65.2361984253-8.9899902344-29.8710796833-49.1199951172-40.1666793823-72.2799072266-22.0224294662-19.0500488281,14.8662290573-20.6199951172,26.8701314926-22.6900634766,49.4927282333-.8299560547,8.9104995728-2.0799560547,4.478302002-6.919921875,7.8486022949-5.4000244141,3.7397003174-3.8800048828,12.0961990356,1.4699707031,15.2357025146,1.9399414062,1.1541976929,6.0499267578,1.5234985352,7.3399658203,2.8623962402,1.0100097656,1.0157012939,2.6300048828,7.7563018799,3.7800292969,10.0186004639,2.3099365234,4.478302002,6.4599609375,10.7574996948,11.0699462891,13.0195007324,2.4400634766,1.1539993286,7.4700927734,1.0159988403,7.1000976562,3.8320007324-.6900634766,4.7549972534-9.3100585938-.0920028687-11.5300292969-1.2929992676-10.8400878906-5.6320037842-24.3499755859-14.8198013306-34.3599853516-22.022102356-2.2200927734-1.5235977173-15.9200439453-11.449798584-16.330078125-12.3731994629-.8800048828-1.6621017456,2.080078125-5.817199707-.4599609375-7.8947982788-.9200439453-.8310012817-7.2399902344-2.4468994141-9.4599609375-3.4626998901-2.6700439453-1.3388023376-5.3500976562-3.0009002686-8.1199951172-4.6630020142-17.5700683594-15.2355995178-26.4300537109-7.2023010254-29.7900390625-2.1698989868-.1900634766.1847000122-.3299560547.4155006409-.4200439453.5539970398h-.1400146484l-4.6999511719-2.354598999-1.6199951172,2.0314025879-31.6800537109,40.1666984558h14.25c1.7100830078,0,23.4300537109,18.5131988525,27.9500732422,19.6681976318,1.8499755859,9.5100021362,3.5499267578,14.7269973755,11.9899902344,19.9440078735,2.9599609375,1.8470001221,8.1700439453,3.3709869385,10.3800048828,5.3099975586,2.7700195312,2.4010009766,11.0699462891,17.220993042,13.6099853516,17.9589996338,3.5999755859,1.108001709,4.8900146484-6.0019989014,8.2600097656-6.4629974365,3.9200439453-.4620056152,18.6799316406,3.1389923096,24.0300292969,3.6929931641,6.2199707031.7850036621,12.6799316406.6930084229,18.9099121094,1.4309997559-6.6899414062,19.1600036621-11.7600097656,38.8280029297-15.2698974609,58.8190002441l-.2301025391,1.5240020752-.1799316406.8309936523v.3690032959h-88.6099853516c.1400146484-.5540008545.2700195312-1.108001709.3699951172-1.6159973145.5499267578-3.0010070801.5999755859-5.171005249-.330078125-8.5870056152-4.0999755859-14.4509887695-16.7899169922-31.6259918213-21.7698974609-46.4459991455l-.1400146484-38.3659973145h-21.5400390625c-1.4300537109,0-6.3199462891,1.986000061-6.5899658203,3.9710083008v34.2569885254c-5.3500976562,15.1890106201-16.4200439453,31.0250091553-21.2200927734,46.0299987793-1.0599365234,3.2320098877-1.1499023438,5.9560089111-1.0599365234,9.1410064697v1.6159973145h-3.3200683594v-30.1940002441h-41.6999511719l3.8299560547-10.5260009766h21.080078125v-10.203994751h-38.6099853516v10.203994751h4.5699462891l-3.8299560547,8.5870056152c-15.4500732422-6.6020050049-19.8400878906-13.3890075684-20.1099853516-13.8970031738-.7000732422-.8309936523-1.1099853516-1.5699920654-1.3000488281-2.1239929199-.6899414062-1.8930053711,1.4799804688-2.9540100098,1.5699462891-5.0320129395.0500488281-3.1859893799-3.6899414062-4.5709991455-3.6398925781-5.5399932861,0-1.8470001221,4.4299316406-4.8939971924-3-7.0180053711,9.8699951172-6.8329925537-2.2600097656-8.771987915-2.6700439453-10.6649932861l2.2099609375-7.8020019531c1.0100097656-1.7550048828,2.4899902344.5540008545,3.2700195312,1.3390045166,2.3100585938,2.3079986572,9.7399902344,12.8809967041,11.7199707031,13.3880004883,3.0900878906.8320007324,6.3200683594-6.0010070801,8.2600097656-6.3249969482l7.1500244141,5.4019927979,6.0899658203-6.0480041504-5.5399169922-7.2949981689,5.5399169922-7.2939910889c-2.9099121094-3.3710098267-22.3299560547-25.8550033569-24.3099365234-25.4850082397l-5.2199707031,3.6470031738-12.9600830078-14.3583984375,2.7200927734-3.6011047363c-3.0900878906-2.1699981689-4.6101074219-9.0028991699-8.7600097656-6.1865997314-1.9400634766,1.2927017212-21.1700439453,20.5451049805-21.6300048828,22.022102356-.6500244141,2.5400009155,5.2099609375,6.5559997559,7.0100097656,8.4950027466,2.0299072266-1.7540054321,9.5899658203-8.0330047607,9.5899658203-1.2920074463,0,1.7540054321-4.6099853516,5.2170028687-5.9500732422,7.0170059204-5.7199707031,7.6640014648-5.2999267578,14.6360015869-5.2999267578,23.8690032959-3.0899658203.4160003662-7.5200195312,3.7399902344-10.3800048828,3.5549926758-1.6099853516-.1380004883-3.4100341797-1.4770050049-5.6700439453-1.5690002441-9-.5079956055-19.1899414062.4150085449-27.7299804688.046005249-8.4799804688-.4160003662-18.0799560547-11.0350036621-23.6600341797-17.1750030518-1.4699707031-1.6620025635-10.0100097656-11.3109970093-9.1799316406-12.5120010376,12.1300048828-8.7719955444,17.7600097656,5.2170028687,27.7199707031,8.7720031738,19.0500488281,6.7410049438,30.8199462891-14.7270050049,36.0300292969-29.6398010254,6.8699951172-1.7544021606,15.7700195312.4617004395,17.3900146484-8.5411987305,2.2099609375-12.0037994385-9.3200683594-7.9872055054-10.7000732422-15.697303772-.7899169922-4.2474975586,4.4700927734-16.1128005981,4.1500244141-22.6226005554-.4200439453-13.9428977966-14.8099365234-30.8405990601-26.8000488281-37.0271978378-38.1899414062-19.6678199768-56.8299560547,17.1284990311-63.0999755859,49.2157011032-2.3499755859,12.3269958496-3.2299804688,19.3908004761,3.7800292969,30.5635986328-3.7800292969,6.1403961182-7.7900390625,4.478302002-12.8699951172,6.6020965576-4.6099853516,1.985206604-15.4499511719,10.987701416-19.5600585938,14.6817016602-34.0399169922,30.1020050049-52.1199951172,72.43800354-60.1899414062,116.529006958l1.0100097656,1.9389953613h13.8900146484c3.1799316406,0-.4600830078,13.2969970703-1.1099853516,15.5590057373-2.9000244141,9.1879882812-10.0500488281,19.9450073242-16.0500488281,27.4239807129-5.1699829102,6.5559997559-17.6199951172,14.3590087891-11.950012207,22.7150268555M496.428752329,63.5646845547l-9.5899658203.8310966492c-2.4000244141-.8310966492-1.6600341797-10.849697113-1.3900146484-13.2042961121.3299560547-3.0471000671,2.4499511719-12.1885032654,7.2899169922-10.295501709,3.0900878906,1.108001709,3.6900634766,5.6324996948,3.6900634766,6.5097007751v16.1590003967ZM184.8987230321,54.4232851712c7.2399902344,1.3388977051,1.6999511719,26.3161010742-4.25,31.0714950562-1.2900390625,1.0157012939-4.8900146484,1.8467025757-6.0899658203,1.0618057251-6.6400146484-5.7710037231,3.1899414062-33.3798027039,10.3399658203-32.1333007812ZM73.3187669775,272.0159746853c-1.8499755859,8.2180175781-7.1099853516,16.3900146484-4.3400878906,24.7920227051h-6.4599609375c.2800292969-11.2650146484-16.7900390625-12.4650268555-24.9499511719-14.774017334,8.2999267578-15.1889953613,17.5299072266-30.3320007324,15.8199462891-48.4769897461l1.3800048828-1.4309997559,19.3299560547.8309936523c3.4600830078,12.9270019531,2.1700439453,26.1319885254-.7799072266,39.0589904785ZM227.1487230321,203.3169848172h-40.7299804688l-.9200439453,12.0500030518h-20.3900146484v81.4410095215h-32.7999267578c-.5-.1380004883-3.6900634766-4.7090148926-5.9000244141-6.1400146484-8.3499755859-5.4479980469-21.7299804688-7.8030090332-31.5100097656-7.7560119629,5.5899658203-17.3599853516,5.6800537109-36.0579833984.9300537109-53.6479797363,5.669921875.9229888916,6.7799072266-5.217010498,6.5499267578-9.7420043945-.2800292969-4.2940063477-2.2600097656-3.9700012207-3.3199462891-6.9250030518-8.7700195312-22.8540039062-2.8200683594-46.6300048828,7.8800048828-67.4989929199l2.7700195312.3699951172c14.669921875,12.5579986572,28.3199462891,23.9609985352,48.4299316406,26.2700042725l3.9200439453,12.2339935303c5.6300048828,1.2929992676,16.5200195312-9.1410064697,22.419921875-9.7870025635,4.0100097656-.4619903564,13.2401123047,6.3710021973,18.9100341797,4.2929992676,5.6800537109,10.342010498,14.3499755859,15.421005249,22.5600585938,22.7149963379.5999755859.6000061035,1.75-.0459899902,1.1999511719,2.1240081787ZM363.3087572118,186.7889849392c-6.0400390625-.5540008545-12.8200683594,2.7700042725-18.4000244141,3.2310028076-2.2199707031.1389923096-16.4200439453-1.9850006104-16.5100097656-3.6009979248,1.0100097656-3.0470123291,9.6800537109-17.0360107422,9.6800537109-18.6980133057v-34.9499969482l1.25-1.1999969482h14.1999511719v33.7030029297c0,2.216003418,10.6600341797,20.7299957275,9.7800292969,21.5149993896ZM412.7587083837,87.6646868435c-12.5499267578-1.0619049072-25.1799316406-1.2465057373-37.4499511719-3.7397003174l13.9699707031-18.375c3.1800537109-2.2623023987,11.3499755859,13.1117935181,13.75,14.2198944092,5.0300292969,2.3084030151,8.5300292969-2.5392990112,11.3399658203-2.1698989868,2.2200927734.3231048584,13.6099853516,9.1875,13.6099853516,10.4802017212-1.0098876953,1.4312973022-1.4699707031,1.4311981201-3.0899658203,1.3388977051-3.6899414062-.1847000122-8.4399414062-1.477394104-12.1300048828-1.7543945312ZM452.428752329,131.2939898221l2.669921875-6.0020065308c.2301025391-.4619979858-.0899658203-1.06199646-.6398925781-1.06199646-3.3200683594-.0920028687-13.330078125-.6920013428-17.0700683594-4.0160064697l-14.8099365234-4.3859939575,6.5100097656-9.18800354,2.7698974609-3.8779983521c1.0600585938-2.1240005493,2.6300048828-4.8940048218,3.0400390625-4.9402008057l34.8299560547,24.4232025146,25.2301025391,14.9119949341c-.1400146484.4620056152-.330078125.8780059814-.5100097656,1.3850097656-14.25-.4610137939-28.3200683594-3.324005127-42.0200195312-7.2480010986ZM507.7286790868,175.6159807889c-.5,2.6309967041-1.0098876953,5.3549957275-1.5599365234,7.8950042725v.046005249c-1.0700683594,5.6319885254-2.0300292969,10.8489990234-2.5400390625,14.4969940186l-8.4899902344,5.2630004883-4.6600341797-9.6029968262s0-.046005249.0500488281-.092010498c.0899658203-.6929931641,1.4699707031-8.3109893799,6.1300048828-21.7919921875,2.6800537109-7.7100067139,6.5100097656-17.3590087891,11.8599853516-28.6240081787l5.3000488281,2.9540100098s-3.1800537109,14.8199920654-6.0900878906,29.4559936523ZM512.1186937353,78.8464800564c-6.6499023438,5.0324020386-11.3099365234-9.9723968506-11.8999023438-14.9123954773-.6000976562-5.5864028931,1.1499023438-24.9771995544,9.3599853516-23.3613014221,10.1499023438,1.9851989746,10.5599365234,32.1333007812,2.5399169922,38.2736968994Z"/></svg>