<?xml version="1.0" encoding="UTF-8"?><svg id="Layer_1" xmlns="http://www.w3.org/2000/svg" viewBox="0 0 1575.512736118 1203.9611271243"><defs><style>.cls-1{fill:#005645;}</style></defs><path class="cls-1" d="M1230.4922908975,202.3101434094c-14.6243281234-61.2081625825-54.023719158-115.1330036525-110.934015901-151.7427340486-63.6932108711-40.950283847-144.8491737815-57.5423614719-234.7605895461-47.8956404-2.0203987757.2414035424-3.8966301631,1.302401551-5.0511437492,2.9910487699-1.2026672554,1.6391889321-1.6357566602,3.7611849492-1.2026672554,5.7866195492l20.4453433432,93.8153044869c.7214241813,3.0864326086,3.31937337,5.4015514595,6.4942857315,5.6429550021l35.1659788057,2.7496452273c.1444610082,85.1318424283-17.9437014936,363.0544417477-18.1360225512,365.9477515223-.1444610082,2.0748928868.6254104626,4.1003274869,2.0685524451,5.5475711633,1.3468346437,1.3977853898,3.2230660311,2.1702767255,5.1474510878,2.1702767255h.3846421154l39.688019431-2.2185574339c38.0044027212-2.1714543039,73.7476383198-9.5018789466,106.123346879-21.8016838288,120.7479686226-45.9667672171,181.4104345204-148.4148978975,154.5668191643-260.9925567351ZM1121.7231347805,322.3159658848c-16.1156237756,33.2807166668-48.6357933429,58.2171138126-94.3853027208,72.5435308732l2.5016418498-269.3368762559c35.7432355986,10.9491226228,68.8888156286,49.5360069105,88.9492232364,83.9271798726,17.5109057087,41.6733168961,18.5209582865,80.6947275603,2.9344376347,112.8661655101Z"/><path class="cls-1" d="M571.7192632893,200.0915859754l25.8814228275,319.9821618834c.2886283966,3.714081819-2.2608735027,7.04191797-5.9170289384,7.7178478888l-66.1466990517,12.1055044701c-.4330894047.0965614171-.914038859.1448421255-1.2989745943.1448421255-3.3675270395,0-6.3979783928-2.3633995594-7.0715425246-5.7877971276l-63.1641077475-305.2223960246-165.9199275874,36.5614496876c-3.8966301631.8678751747-7.7454002765-1.5920858019-8.6112854659-5.4981128765l-24.5342945639-111.9511872053c-.4330894049-1.9288731831-.0481536695-3.9554853614,1.0582062471-5.5946742935,1.1066535367-1.6403665105,2.8384239159-2.7496452276,4.7628089726-3.0876101869l510.8928152332-87.7849262388c1.9725387263-.3379649593,3.9929375018.1931228339,5.5805404925,1.3989629679,1.587602991,1.205840134,2.6458092382,3.0393294784,2.8381302959,5.01648337l7.8895676648,79.3923260092c.3367820659,3.5692396936-1.9240914369,6.8499727145-5.387925815,7.7178478888l-210.8517054449,54.8892776617Z"/><path class="cls-1" d="M893.2163562387,513.0318298889c.3367820659,3.714081819-2.2130134533,7.0901986785-5.9170289387,7.7649510191l-203.5393945731,36.7545725216c-.4330894048.0482807084-.8658851896.0965614169-1.2989745943.0965614169-1.5876029909,0-3.1270523122-.5310877934-4.3775796172-1.4955243849-1.6357566603-1.2541208426-2.646102858-3.134713317-2.7902702464-5.1613254955l-25.8332691581-327.6505514854c-.2886283965-3.617520402,2.1648597838-6.8982534227,5.7247078809-7.6695671803l224.8024694365-46.7380809747c2.0203987756-.4345263763,4.1852585596.0482807086,5.8691688891,1.3506822595,1.6354630403,1.2541208424,2.6939629075,3.231274734,2.7899766265,5.3061676208l3.8006164442,65.1624703657c.1923210575,3.5209589849-2.2130134534,6.7051305888-5.6765542116,7.4764443463l-150.1892395472,33.0404907025,4.6183479643,68.9260104714,93.1826354652-16.8334811674c1.9240914368-.3379649595,3.8966301629.096561417,5.4842331537,1.2529432642,1.587309371,1.1587370038,2.6458092381,2.894487353,2.9344376346,4.823360536l9.0922349202,61.6438665371c.5291031237,3.8577463661-2.0206923955,7.4752667681-5.8691688891,8.1994773954l-96.7906372316,17.4599527995,2.886283965,43.6033676576,127.0980869658-22.9109625458c2.0203987756-.3379649595,4.0407975513.1448421254,5.6765542115,1.3506822594,1.5873093709,1.2541208425,2.5976555687,3.0864326087,2.7899766265,5.1130447868l5.5323868232,59.134447274Z"/><path class="cls-1" d="M884.1944003372,1025.5439638492c.2176476005-16.0832601269-11.6475555896-33.6556998972-34.7023215009-36.1310626043l-.1424719605-.0152970444c-4.9281284644-.5291272731-10.4095047263-.390489189-15.6526491855-.2262724406-4.3660490855.1139034983-8.4886140295.2042085391-11.9415517036-.0694157623-93.965183765-7.1778933889-180.4959123583-45.4771064655-237.2235044862-105.0253072434-16.3087280928-17.1755142685-29.5104498735-35.815216973-38.5428945919-54.540209294,43.8981196861-11.9239112562,80.201686035-41.0612098222,96.3797758804-77.9374612818,14.7634052474-33.5841682633,11.4376120706-70.8585951149-9.3469734417-105.0073909082-46.6347827117-76.6081913686-155.5229178779-97.6128016948-234.610770391-92.3284652784-24.6081227093,1.6284804517-36.7070779865,17.9851374507-37.8257988383,33.436341876-1.230277445,17.8670641398,10.8837019598,33.0881183618,29.4341071952,36.9723821088,5.8168616549,1.2546029117,11.2879833502,1.2119773037,16.6166330855,1.1540546511,1.0145651064.0118191484,2.0343825518-.025538825,3.0022355403-.018735101l-66.5587840386,351.3872174168-.1725440345.7086410658-.0300720742.7239381103c-.4643106407,12.951512944,2.9897926361,23.6543044717,9.9987273601,30.9560848899,5.2724866089,5.4667792374,12.4143289166,8.8035450491,20.7851404887,9.7023090997,1.5788695934.1695213444,3.2147058712.2480456371,4.8607967154.2305574539,27.0944510318-.0019373952,33.0234639908-27.8882908609,36.2210544048-42.8746901114,6.0138266098-28.215960052,11.0358223536-57.1210927799,15.9088104269-85.0734579402,3.276197935-18.9075029309,6.7220231712-38.4742190345,10.4067718351-57.5794557914l30.6162553724,4.161252277c37.5984984042,93.7295101183,128.2531353633,169.4835875966,243.7083361369,203.3206398761,36.7314546786,10.7843924107,93.2262249397,22.2364146082,131.6298586443,19.178105438,25.4228885615-2.024198875,36.9673524044-19.0728129958,37.1818331608-35.104303462ZM481.7691732542,629.4777107377c3.9838118397.7664500507,10.4011854219,2.2821248263,20.4852693545,5.2550011352,26.7381283605,7.8686330759,61.4665777777,27.8958723135,74.4717393472,53.3526819102,5.8024098545,11.3433803892,6.7023131029,22.4043525458,2.6728045153,33.8550849193-14.1269155815,40.298860356-85.6799216973,51.146028325-124.7049399416,44.6276033859l27.0751267246-137.0903713506Z"/><path class="cls-1" d="M1329.2189494774,668.8753653786c-.1450285306,11.9897592261-18.5362373429,58.4027521869-24.9825322021,67.671253791-5.4349166359,7.7995043064-12.9003202731,13.194068045-21.141259792,15.698888897-6.584209452,2.0012603045-13.6650167831,2.1895853937-20.5974850039.2139048726-15.5695272664-4.4422619421-26.2649613869-18.3765412654-27.2273296181-35.52265361-.7519151195-13.1297466988,19.5397517089-64.5575580087,26.4724323853-73.2159088449,2.4109062066-3.0018301878,6.9095363583-7.2411650417,11.1504219115-9.3373825833,2.3158717934-1.1567290531,4.6540457503-2.0692151499,7.0031406214-2.7832189116,11.0935724292-3.371874224,22.6546941444-2.0475398012,32.0812452918,3.8582667942,11.1273978133,7.0500096544,17.4311873525,19.2453376823,17.2413664059,33.4168495952Z"/><path class="cls-1" d="M176.0571508321,934.8609766801c-26.4350028525-2.8603784284-52.7016136072-12.6320258329-77.1948443981-29.0529026926-40.8727977874-27.3944127482-72.0989403062-70.5203081371-87.9386727833-121.4320511811-33.6559657427-108.1714837067,13.0803183543-219.3562212948,104.1792434625-247.8528544464,39.5744705202-12.3736036402,82.9918206737-7.6080844289,122.2507427528,13.4411793403,19.2847378638,10.3313788815,26.5569382785,34.386375516,16.2481719814,53.7162972816-10.3138913462,19.3293672138-34.2845397497,26.6178327956-53.5749557552,16.2910379323-14.4264982619-7.7315285972-36.7818216176-15.3540838579-61.3403785091-7.661374926-49.4254284803,15.4560252553-72.8310022538,82.0415947012-52.1762061331,148.430193252,10.4657165868,33.6433337314,30.4837143483,61.7286718277,56.3602983504,79.0737974358,23.2313666932,15.5721547466,48.3412932271,20.2905448486,70.7257547685,13.2879078666,39.575023613-12.3787422101,62.4673792198-57.5295886131,59.4235417415-109.1153351173l-112.6508406566,35.2306643446c-20.8717204107,6.5321150709-43.0747437108-5.1547179388-49.5799740855-26.0752544791-6.5098023311-20.9262296621,5.1303513467-43.1843540961,26.0066437138-49.7107760453l154.9886041825-48.4697134484c20.8625764981-6.5435013146,43.065599798,5.1433316952,49.5799740855,26.0752544791,33.6559657428,108.1714837067-13.085443403,219.3556667429-104.1843685114,247.8522998947-19.969783317,6.2450256063-40.596912876,8.1926106579-61.1227342066,5.9716305094Z"/><path class="cls-1" d="M793.0980841801,950.1539788845c-5.1630129444,0-10.3917967543-.221384712-15.6910493489-.6594438232-71.713733027-5.9679666007-120.9855071501-94.0743717032-112.1722111685-200.5792594751.3617397604-4.3664601727.8174379002-8.6905275282,1.3576985813-12.9627814404-.0704687844-1.7145539405-.0187916757-3.4526594461.159729245-5.2096062039.3006668139-2.9674972047.9536775502-5.8172365839,1.9073551005-8.5068253202,16.2454037869-92.6801190484,74.6405365435-158.059263813,140.1859019673-152.6188522709,68.4110959934,5.6947684452,115.9587338558,83.3065961317,113.0601178531,184.5500642565-.2865730569,10.0470976789-4.7308043994,19.5242474819-12.266266422,26.156368219-7.5307641036,6.632120737-17.4668627183,9.8445542188-27.4593363605,8.7941544146l-145.7717276188-14.8940097799c.3711355984,57.2208826081,23.6446261595,101.2246268726,46.9650959104,103.1652758383,36.9444347543,3.0569931521,66.3346158102-11.4413503338,89.7866272922-44.3758589934,11.5850681719-16.2600005568,34.1115896174-20.0282509754,50.3288058905-8.4267499989,16.2172162732,11.6109216026,19.9802493657,34.2015828629,8.4045770315,50.4615834196-35.1404338711,49.3546598591-82.88538433,75.1059411579-138.7953179531,75.1059411579ZM748.1812809392,702.7023945136l99.1636735498,10.1318833133c-7.201909776-44.3475971151-28.3425451263-69.7691565024-44.4658030201-71.1115957141-18.4299361066-1.5073001675-41.1537701485,22.8544387896-54.6978705297,60.9797124009Z"/><path class="cls-1" d="M1269.8945316714,977.473077421c-20.7221372015-33.8229007642-53.3791022264-57.5137107345-91.880173179-66.747393466-38.501307311-9.2360259347-78.2813897382-2.8752871873-112.0620344223,17.906258828-1.9152824927,1.1647549087-3.727682231,2.3664206366-5.5844325914,3.619927054-8.8998421128-1.9570736989-17.959462573-5.4981528273-21.2121754198-11.8579431858-4.4723108159-8.8542105601-1.8438617287-24.9736847256,3.4586680452-40.4931992214,9.8533004088,1.8130469869,19.6990724699,2.1237039737,29.4164753171,1.1383325546,55.0419124234-5.5814015543,105.6760247963-52.9414310112,121.5457943689-119.4655915085,8.9327100127-37.5069947882,5.6818643509-75.9610748533-9.1296158747-108.2505117161-9.6642605135-21.0276033703-23.9356231139-38.3426428654-41.2097306888-50.4578867376l30.6350335797-81.6918097445c7.0101062381-18.6966070735-2.3942943515-39.5588201293-21.0417057968-46.5874204398-18.6964892378-7.0236236871-39.4988448651,2.4547948752-46.5089511031,21.1514019486l-32.8451194225,87.587659538c-23.5690862204,1.7105922818-46.9949683625,11.0668276651-67.409529937,27.2452578288-27.749146842,22.1086483224-47.98988229,54.8964590442-56.9176287741,92.4526611017-12.8259452442,53.5629809262.1806959696,106.2984146404,30.0752489152,140.4505419923-11.5764904832,28.0791502185-23.2801676903,72.1709042916-4.5260911762,109.4908406182,6.1695165609,12.2683728346,16.9648982571,26.2999121722,35.6879007216,36.9568215423-4.7683894307,9.7438996084-8.4689281849,20.056527037-11.0080045845,30.8360701463-9.2096228731,38.6003013307-2.8653845225,78.4876748327,17.861479849,112.3574396628,20.7221372014,33.8229007642,53.332361472,57.5184503757,91.8334324246,66.7521331073,16.6007307798,3.9883811661,33.1866412227,4.9743255351,49.270134824,3.3434149758,61.0247289913-6.1880756365,114.3562461595-50.2827091721,129.412504774-113.379565216,9.2093865145-38.6026445341,2.8653845223-78.4876748328-17.8614798492-112.3574396628ZM1019.3147386686,719.8565281868c5.1253662707-21.5591394532,16.6366071607-40.7121739806,31.5909493923-52.5541840798,5.4554921729-4.3832841303,15.1291627468-10.6004025679,26.5666253572-11.7601927856,3.6387677328-.3689810725,7.5200161841-.22993695,11.4320494695.6824174954.2971463384.0669225414.5942926767.1338450829.8914390151.2007676243,16.3229658386,4.1136012951,25.2430764348,18.7235142834,29.1387632327,27.1509261138,7.9406091637,17.3746713416,9.560108445,39.6559622432,4.4349785329,61.2174448998-9.8200316294,41.1856024277-41.9402783154,70.2827193055-70.1371761413,63.4933746458-3.7154326638-.8825797054-7.2508680298-2.3681027959-10.4979870983-4.3657647763-.105509245-.0863550706-.2060549617-.123502872-.3115642069-.2098579426-14.0411785935-8.8070975799-23.3434808871-27.2059703012-25.5411422383-48.9930745669-1.1085213741-10.9896234682-.4223116685-22.8879590175,2.4330646851-34.8618566279ZM1217.5486650402,1073.0484128592c-9.7532851787,40.8876721575-50.8567151751,66.2418509718-91.6858790425,56.4678112854-19.7686115213-4.7323761473-36.5216127786-16.9478050496-47.1694861725-34.2917709223-10.5985592435-17.3465992928-13.876495525-37.8595127194-9.154470809-57.6828580058,3.7059373677-15.5020130402,11.9072083058-29.1305693184,23.6312539974-39.4330270503.4941349008-.3909792212.9370913304-.7744016338,1.3774212691-1.2072682977,2.850897443-2.4219096565,5.9152035085-4.6240081237,9.197828631-6.6044261626,9.9217391199-6.1452192726,20.8173977953-9.8208164604,32.0632233123-10.9611741489,8.4250209872-.8543203381,16.9930654152-.2673336658,25.4161518329,1.7380843739,19.7688478797,4.7347193506,36.5218491371,16.9501482529,47.1694861725,34.2917709224,10.6452999979,17.3418596514,13.8743948457,37.8620929048,9.1544708089,57.6828580058Z"/><path class="cls-1" d="M1536.8761887358,719.3923173647c-14.4153726196,17.2175176509-41.048171572,17.1291626244-55.0425407663-.5238644122-2.2560756263-2.8458991951-3.733472252-6.0084493869-6.3305136686-8.6769249091-5.9741432184-6.1384677355-13.7199870373-8.9700953132-22.2564705924-8.9471033569-1.6530315764.0044522349-6.3749520712.294216762-7.541014953,1.4847576933-.8403740124.8580151851-2.2192291166,4.4781188672-2.6554882662,5.7623234451-.7004250087,2.0618226654-2.3250577463,7.6978097184-2.3605767818,9.6653309712-.0234817428,1.3007343211,2.4366248168,4.1013538955,3.3738397243,5.168098383,10.3172135388,11.7431237816,29.8844825734,22.701929083,42.8987855093,32.0906940656,38.7949910917,27.9874424053,64.7585011684,58.6712968606,51.7638934414,110.0062351859-12.9420314479,51.1272367844-52.8274464723,77.9826032271-105.0248729232,75.5799738631-63.3712129972-2.9169548677-115.1942094109-43.9796894267-110.5972688955-111.6268649119,1.0398654569-15.3023431162,3.7732473246-28.7246333606,17.2825905677-37.6909776998,21.3537003229-14.1727563333,50.5267328861-1.5820034168,54.8106470218,23.6309320074,2.6590756951,15.6499644169-7.8171876902,30.6154778921,7.9860582799,43.431966763,12.252672477,9.9369610987,44.5164453658,15.9365580824,57.3914116746,5.6257009061,5.4624147544-4.3745495732,11.3993855839-18.8790869404,10.2461494222-25.672429086-1.2557672318-7.3973196006-18.1609942602-20.0120274365-24.3037679282-24.4562619423-29.1104027544-21.0610814258-65.7203347793-40.5749771963-75.0534567897-78.5326313929-6.4424282267-26.201249972,4.3606434801-63.2224698192,22.9553674945-82.6103421579,27.8841077549-29.0734899326,76.4984795709-29.2456313403,109.9353554624-9.9996644761,24.5868588462,14.1519761648,56.4646462607,47.6941404795,32.5218729669,76.2910510615Z"/><path class="cls-1" d="M1574.4069722963,483.0294910864c-2.1164124945-6.9453565531-7.3601709212-11.9123816362-14.7684955118-14.0355552316l-5.0992974185-1.4472436764-2.8865775851,4.4865731549c-12.5557756784,19.2934421438-25.8332691581,30.2425647666-41.8047255453,34.3899953837-2.068552445.5310877932-6.3019646739,1.3506822594-10.8240052994,2.0748928867,16.7891879074-13.6987678503,29.2007961975-34.3428922535,32.8569516334-56.1928567908,3.6561554359-22.0430873712-2.4053345109-41.5767554791-17.077816304-55.0824004955-17.1259699732-15.7724831589-51.2337425314-18.9083740542-72.978060469-6.7051305889-15.3939059741,8.6822844805-22.3212811106,23.6822763034-18.9058940217,41.2399680982,1.6839103296,8.7305651888,15.6346743212,18.7635319287,23.8128703825,23.9236798458l3.0788986428,1.9783314698,3.4156807087-1.3506822595c2.7899766266-1.1104562952,3.9444902125-3.3761168594,4.7625153526-4.8716412443,1.1063599167-2.2185574341,2.405334511-4.6796959887,6.4942857317-5.5958518718,2.0685524451-.4816295067,6.6869004093.6276492102,7.9377213341,1.6403665103,1.5873093709,1.8805924747,2.1167061146,5.4015514596,1.4431419826,9.6467210719-1.2026672554,7.5730057635-5.9170289386,15.5310796165-11.0163263569,18.5692315166-7.6490929376,4.5348538632-16.5008531308,5.4027290378-26.3145122325,2.4611385547-24.7750629108-7.2844990906-48.7321006816-35.5487323876-57.15077147-52.3822135549-.0963073389-.2414035424-.1923210577-.4345263764-.2886283965-.6276492104,1.3949883131-.3367873812,2.9344376345-.8195944661,4.5220406254-1.5909082237,56.33303995-26.0468534411,77.0188580203-81.2258153536,67.9266231-119.9575417667-4.7625153525-20.3061594439-19.6754718725-35.1142060111-41.9010328841-41.7215976047-35.3582998634-10.5145962464-84.9081320651.8678751747-110.452772827,25.3709235223-11.5938767699,11.1422454569-46.37491984,44.4712428321-15.2497385859,127.3845278263-2.6461028579,1.205840134-6.0133362774,2.604803102-8.034028673,3.4255751463-2.7899766263,1.1563818473-5.2434648069,2.1690991472-6.4461320621,2.8450290662-38.3411847873,20.0164751929-60.1815164436,58.2665720994-55.6594758183,97.3833666022,3.896630163,33.7152430431,26.4105259513,58.9896051484,60.229670113,67.6718896288,8.6591455155,2.218557434,17.7992404852,3.2795554426,27.2282574714,3.2795554426,29.3449635857,0,61.143708972-10.6111576635,89.2378516329-30.4827907309,2.068552445-1.495524385,4.3297195677-3.520958985,6.7350540786-5.6924132888,2.2608735028-2.0737153086,6.4461320622-5.8360778359,7.9855813838-6.7039530106,2.2611671226.5781909236,7.6009392681,3.0393294785,10.5835305722,4.3888341596,3.5116944277,1.5438050933,6.542439401,2.9427680613,8.7072991849,3.617520402,43.8251243211,13.9401713927,103.4775376409,9.5996179416,138.0181059841-31.3989466139,7.119696194-8.4408809379,16.1637774448-26.0468534413,11.8822115466-39.9387441254ZM1309.242919297,515.1538259059c-10.0059801593-15.1931146569-9.5731843745-36.1269233112.7217178011-53.4914922719,3.2230660313,3.9554853615,7.7451066566,10.0329667398,10.2949021758,13.5056450164,2.9344376346,3.9554853613,5.2916184762,7.0419179699,6.5905930704,8.5857230633,10.2949021757,11.9135592144,21.1189074751,22.7661204203,32.1833875015,32.2679993667,1.1063599167.9644365916,3.1267586923,2.411680268,6.6387467399,4.8233605359,1.0582062473.7242106275,2.3571808415,1.6403665105,3.656155436,2.5565223936-4.810669022,2.7496452272-13.2293398105,5.9326392529-17.7995341052,6.945356553-17.8958414441,4.0037660698-33.3379010878-1.5426275151-42.2859686196-15.193114657ZM1352.3947731061,317.5408860572c3.5116944275-7.7661285972,9.1400949696-10.0329667398,13.2293398102-10.6111576634.7695778507-.0965614169,1.5876029909-.1448421256,2.3571808416-.1448421256,5.7728615503,0,11.5457231006,2.7496452275,15.586520652,7.5730057635,12.1229798936,14.5171847381,5.7247078808,45.6759053879-8.1300423919,63.8129656843-2.9825913041,3.9060270746-9.6213380438,10.466315538-13.998917661,13.6493095636-1.9243850567-4.726799119-4.5701942949-11.5755942551-5.1956047574-13.5527481466-5.5323868232-17.4128496692-11.9785188853-42.638931066-3.8484764934-60.7265330759Z"/></svg>