<svg width="535" height="420" viewBox="0 0 535 420" fill="none" xmlns="http://www.w3.org/2000/svg">
<g clip-path="url(#clip0_1_52)">
<path d="M422.208 65.8698C417.413 45.9246 404.547 28.3747 385.964 16.4444C365.121 3.13229 338.606 -2.25705 309.186 0.875219C308.54 0.967344 307.895 1.28978 307.526 1.84254C307.111 2.39529 306.973 3.08623 307.111 3.73111L313.797 34.2707C314.028 35.2841 314.904 36.0211 315.918 36.1132L327.4 36.9884C327.447 64.7182 321.544 155.231 321.452 156.199C321.406 156.89 321.636 157.535 322.144 157.995C322.605 158.456 323.204 158.686 323.804 158.686L323.942 158.686L336.9 157.949C349.304 157.258 361.017 154.863 371.576 150.855C411.049 135.885 430.877 102.536 422.116 65.8698L422.208 65.8698ZM386.655 104.977C381.399 115.802 370.746 123.955 355.806 128.607L356.636 40.9037C368.302 44.4506 379.139 57.0257 385.733 68.2189C391.451 81.8075 391.774 94.5208 386.701 104.977L386.655 104.977Z" fill="#005645"/>
<path d="M206.862 65.1788L215.3 169.419C215.393 170.616 214.563 171.722 213.364 171.952L191.737 175.914C191.737 175.914 191.46 175.96 191.322 175.96C190.215 175.96 189.247 175.177 189.016 174.071L168.358 74.6677L114.129 86.598C112.838 86.8743 111.593 86.0913 111.316 84.8015L103.293 48.3198C103.154 47.6749 103.293 47.0301 103.661 46.4773C104.03 45.9246 104.584 45.6021 105.229 45.4639L272.204 16.8129C272.849 16.7208 273.495 16.859 274.048 17.2736C274.601 17.6881 274.924 18.2409 274.97 18.8857L277.553 44.7269C277.645 45.8785 276.907 46.938 275.8 47.2604L206.862 65.1327L206.862 65.1788Z" fill="#005645"/>
<path d="M311.953 167.116C312.045 168.313 311.215 169.419 310.016 169.649L243.475 181.625C243.475 181.625 243.199 181.625 243.06 181.625C242.553 181.625 242.046 181.441 241.631 181.119C241.077 180.704 240.755 180.105 240.709 179.46L232.27 72.7331C232.178 71.5355 232.962 70.476 234.161 70.2457L307.664 55.045C308.31 54.9068 309.048 55.045 309.601 55.5056C310.154 55.9202 310.477 56.5651 310.523 57.256L311.768 78.4909C311.814 79.6425 311.03 80.6559 309.924 80.9323L260.814 91.7109L262.335 114.143L292.816 108.662C293.461 108.57 294.107 108.662 294.614 109.077C295.122 109.445 295.49 109.998 295.583 110.643L298.534 130.726C298.718 131.97 297.888 133.167 296.597 133.398L264.964 139.063L265.886 153.251L307.434 145.789C308.079 145.696 308.771 145.835 309.278 146.249C309.785 146.664 310.108 147.263 310.2 147.907L311.999 167.162L311.953 167.116Z" fill="#005645"/>
<path d="M309.001 334.001C309.094 328.75 305.174 323.038 297.658 322.255C295.998 322.071 294.199 322.117 292.493 322.163C291.064 322.163 289.726 322.209 288.574 322.163C257.862 319.814 229.549 307.331 211.012 287.938C205.663 282.365 201.374 276.284 198.423 270.158C212.764 266.289 224.661 256.8 229.918 244.777C234.76 233.861 233.653 221.7 226.875 210.599C211.611 185.633 176.012 178.816 150.189 180.52C142.166 181.073 138.2 186.37 137.831 191.391C137.416 197.195 141.382 202.169 147.469 203.413C149.359 203.828 151.158 203.828 152.91 203.782C153.233 203.782 153.555 203.782 153.878 203.782L132.113 318.247L132.113 318.478L132.067 318.708C131.929 322.946 133.035 326.401 135.341 328.796C137.047 330.592 139.399 331.652 142.119 331.974C142.627 332.02 143.18 332.066 143.687 332.066C152.541 332.066 154.478 322.992 155.538 318.109C157.521 308.897 159.135 299.5 160.749 290.379C161.81 284.207 162.962 277.85 164.161 271.632L174.168 272.968C186.48 303.507 216.084 328.151 253.851 339.206C265.84 342.707 284.331 346.438 296.874 345.471C305.174 344.826 308.955 339.252 309.048 334.047L309.001 334.001ZM177.442 205.025C178.733 205.256 180.854 205.762 184.128 206.73C192.89 209.309 204.233 215.804 208.476 224.095C210.366 227.78 210.689 231.373 209.352 235.104C204.741 248.232 181.361 251.779 168.588 249.66L177.442 205.025Z" fill="#005645"/>
<path d="M454.487 217.831C454.441 221.746 448.446 236.855 446.325 239.849C444.527 242.382 442.129 244.133 439.408 244.962C437.241 245.607 434.935 245.653 432.676 245.054C427.603 243.626 424.099 239.066 423.776 233.492C423.545 229.208 430.186 212.487 432.445 209.632C433.229 208.664 434.705 207.282 436.088 206.591C436.826 206.223 437.61 205.9 438.394 205.67C442.037 204.565 445.818 205.025 448.861 206.914C452.504 209.217 454.579 213.178 454.487 217.785L454.487 217.831Z" fill="#005645"/>
<path d="M77.5155 304.475C68.8924 303.553 60.2693 300.375 52.2918 295.032C38.9191 286.096 28.7282 272.047 23.5636 255.464C12.5426 220.226 27.8521 184.021 57.6409 174.716C70.5986 170.708 84.7552 172.229 97.6207 179.092C103.938 182.454 106.29 190.285 102.924 196.596C99.5574 202.906 91.7182 205.256 85.4008 201.893C80.6973 199.36 73.3654 196.872 65.3417 199.406C49.2023 204.426 41.5475 226.122 48.28 247.771C51.6923 258.734 58.2404 267.855 66.7251 273.521C74.3337 278.587 82.5418 280.107 89.8276 277.85C102.785 273.797 110.256 259.103 109.241 242.29L72.397 253.76C65.5723 255.878 58.3326 252.101 56.2114 245.284C54.0902 238.467 57.8715 231.235 64.6962 229.116L115.374 213.317C122.199 211.198 129.438 214.975 131.56 221.792C142.581 257.03 127.271 293.235 97.4823 302.54C90.9343 304.567 84.2019 305.212 77.5155 304.475Z" fill="#005645"/>
<path d="M279.213 309.449C277.506 309.449 275.8 309.357 274.094 309.219C250.669 307.285 234.529 278.587 237.434 243.902C237.573 242.474 237.711 241.092 237.896 239.664C237.896 239.112 237.896 238.559 237.942 237.96C238.034 236.993 238.265 236.072 238.587 235.196C243.89 205.025 262.981 183.698 284.423 185.495C306.788 187.337 322.328 212.626 321.406 245.607C321.314 248.877 319.838 251.963 317.394 254.128C314.95 256.293 311.676 257.353 308.402 256.984L260.768 252.147C260.906 270.803 268.514 285.128 276.123 285.727C288.205 286.741 297.796 281.996 305.497 271.263C309.278 265.966 316.656 264.723 321.959 268.5C327.262 272.277 328.507 279.647 324.726 284.944C313.244 301.02 297.612 309.403 279.351 309.403L279.213 309.449ZM264.549 228.886L296.966 232.202C294.614 217.739 287.697 209.493 282.441 209.033C276.4 208.526 268.976 216.495 264.549 228.886Z" fill="#005645"/>
<path d="M435.074 318.34C428.295 307.331 417.643 299.592 405.054 296.598C392.465 293.604 379.462 295.677 368.441 302.448C367.795 302.816 367.242 303.231 366.596 303.646C363.691 303.001 360.74 301.849 359.679 299.776C358.204 296.874 359.08 291.623 360.832 286.602C364.06 287.201 367.288 287.293 370.47 286.971C388.454 285.174 405.008 269.743 410.219 248.048C413.124 235.841 412.063 223.312 407.222 212.81C404.04 205.947 399.382 200.327 393.757 196.365L403.763 169.741C406.069 163.661 402.979 156.844 396.892 154.587C390.759 152.283 383.981 155.37 381.675 161.496L370.931 190.009C363.23 190.562 355.575 193.602 348.889 198.899C339.805 206.085 333.211 216.771 330.259 229.024C326.063 246.482 330.306 263.663 340.081 274.764C336.3 283.931 332.473 298.256 338.606 310.417C340.635 314.424 344.139 318.984 350.272 322.439C348.704 325.618 347.506 328.98 346.676 332.481C343.678 345.056 345.753 358.046 352.532 369.055C359.31 380.064 369.962 387.802 382.551 390.796C387.993 392.086 393.388 392.408 398.645 391.902C418.611 389.875 436.042 375.503 440.93 354.959C443.927 342.384 441.852 329.395 435.074 318.386L435.074 318.34ZM353.177 234.459C354.837 227.458 358.619 221.193 363.507 217.324C365.305 215.896 368.441 213.869 372.176 213.501C373.375 213.363 374.62 213.409 375.911 213.731L376.188 213.731C381.537 215.159 384.442 219.904 385.733 222.621C388.315 228.287 388.869 235.519 387.163 242.566C383.935 255.971 373.467 265.46 364.245 263.249C363.046 262.972 361.893 262.465 360.832 261.821C360.832 261.821 360.786 261.821 360.74 261.775C356.129 258.919 353.131 252.93 352.394 245.837C352.025 242.244 352.255 238.375 353.177 234.459ZM417.966 349.478C414.784 362.79 401.319 371.035 387.993 367.857C381.537 366.337 376.049 362.33 372.591 356.71C369.132 351.044 368.072 344.365 369.594 337.916C370.793 332.849 373.467 328.427 377.341 325.065C377.525 324.927 377.663 324.834 377.802 324.65C378.724 323.867 379.738 323.13 380.799 322.485C384.027 320.505 387.624 319.307 391.267 318.892C394.033 318.616 396.8 318.8 399.567 319.445C406.023 320.965 411.51 324.973 414.969 330.592C418.427 336.258 419.488 342.937 417.966 349.386L417.966 349.478Z" fill="#005645"/>
<path d="M522.365 234.321C517.662 239.941 508.946 239.895 504.381 234.137C503.643 233.216 503.182 232.202 502.306 231.327C500.369 229.346 497.833 228.425 495.02 228.425C494.467 228.425 492.945 228.517 492.576 228.886C492.3 229.162 491.838 230.36 491.7 230.774C491.47 231.465 490.962 233.262 490.916 233.907C490.916 234.321 491.7 235.242 492.023 235.611C495.389 239.434 501.799 243.027 506.041 246.067C518.722 255.188 527.207 265.183 522.965 281.904C518.722 298.625 505.672 307.285 488.611 306.501C467.906 305.534 450.936 292.176 452.458 270.158C452.781 265.183 453.703 260.807 458.13 257.859C465.093 253.253 474.638 257.353 476.068 265.552C476.944 270.665 473.532 275.501 478.696 279.693C482.708 282.917 493.268 284.898 497.464 281.535C499.263 280.108 501.199 275.409 500.83 273.152C500.415 270.757 494.882 266.611 492.899 265.183C483.4 258.32 471.411 251.963 468.367 239.618C466.246 231.097 469.797 219.028 475.883 212.718C485.014 203.229 500.877 203.183 511.805 209.447C519.829 214.054 530.25 224.97 522.457 234.275L522.365 234.321Z" fill="#005645"/>
<path d="M534.631 157.304C533.939 155.047 532.233 153.435 529.789 152.744L528.129 152.283L527.207 153.757C523.103 160.022 518.768 163.615 513.558 164.951C512.866 165.135 511.483 165.411 510.007 165.642C515.494 161.174 519.552 154.448 520.751 147.355C521.95 140.169 519.967 133.812 515.172 129.436C509.592 124.277 498.433 123.264 491.331 127.271C486.305 130.081 484.045 134.964 485.152 140.722C485.705 143.578 490.271 146.848 492.945 148.506L493.96 149.151L495.066 148.691C495.989 148.322 496.358 147.585 496.634 147.124C497.003 146.387 497.418 145.604 498.755 145.282C499.447 145.144 500.923 145.466 501.338 145.835C501.845 146.433 502.029 147.585 501.799 148.967C501.384 151.454 499.862 154.034 498.202 155.001C495.712 156.475 492.807 156.752 489.579 155.784C481.463 153.389 473.67 144.222 470.903 138.741C470.903 138.649 470.857 138.603 470.811 138.557C471.272 138.465 471.779 138.28 472.287 138.05C490.686 129.574 497.464 111.61 494.513 98.9888C492.945 92.3558 488.103 87.5653 480.818 85.4003C469.243 81.9917 453.058 85.6767 444.711 93.6456C440.93 97.2845 429.54 108.109 439.731 135.148C438.855 135.563 437.748 135.977 437.103 136.254C436.18 136.622 435.396 136.945 434.981 137.175C422.439 143.716 415.291 156.153 416.767 168.912C418.058 179.875 425.39 188.12 436.457 190.93C439.27 191.667 442.267 191.99 445.357 191.99C454.948 191.99 465.324 188.535 474.546 182.04C475.238 181.533 475.976 180.888 476.76 180.197C477.497 179.507 478.881 178.309 479.388 178.033C480.126 178.217 481.878 179 482.847 179.46C483.999 179.967 484.968 180.428 485.705 180.658C500.047 185.218 519.552 183.79 530.804 170.432C533.109 167.668 536.107 161.957 534.677 157.442L534.631 157.304ZM447.939 167.807C444.665 162.878 444.803 156.061 448.17 150.395C449.23 151.685 450.706 153.665 451.536 154.771C452.504 156.061 453.288 157.074 453.703 157.581C457.069 161.45 460.62 164.997 464.217 168.083C464.586 168.405 465.231 168.866 466.384 169.649C466.753 169.879 467.168 170.202 467.583 170.478C466.015 171.353 463.249 172.413 461.773 172.735C455.917 174.025 450.89 172.229 447.939 167.807ZM462.05 103.411C463.202 100.877 465.047 100.14 466.384 99.9562C466.615 99.9562 466.891 99.9101 467.168 99.9101C469.059 99.9101 470.949 100.785 472.241 102.397C476.206 107.142 474.131 117.276 469.566 123.172C468.598 124.462 466.43 126.58 465.001 127.64C464.355 126.12 463.525 123.863 463.295 123.218C461.496 117.552 459.375 109.353 462.05 103.457L462.05 103.411Z" fill="#005645"/>
<path d="M22.7797 315.207C25.4542 310.371 18.0301 309.634 20.2896 305.58C21.7191 303.001 24.8548 304.06 26.8376 305.166C28.4516 306.041 29.9272 307.054 31.5411 307.929C40.902 313.134 48.3722 316.036 49.8017 316.819C58.5632 321.702 64.4195 331.007 59.0243 340.68C53.6752 350.261 42.7004 350.906 33.7084 345.931C31.7717 344.872 30.0194 343.444 28.2671 342.476C27.4832 342.062 27.0682 342.246 26.6532 342.937L24.5781 346.668C20.2896 354.821 26.8376 354.084 24.7625 357.815C22.4108 362.007 13.0499 357.032 10.1448 355.42C7.42414 353.9 -2.07508 348.557 0.276666 344.365C2.25952 340.818 5.71797 345.609 8.66919 340.358L22.6875 315.161L22.7797 315.207ZM41.7781 321.702C39.2419 320.32 38.9191 321.103 38.1813 322.393L32.7861 332.066C32.0483 333.402 30.6188 334.554 34.1234 336.488C38.3658 338.837 41.8242 336.58 44.0376 332.665C46.2972 328.612 46.1127 324.097 41.7781 321.702Z" fill="white"/>
<path d="M89.5048 371.22C84.8935 383.334 91.5799 378.313 90.1504 382.044C88.6748 385.96 81.6656 388.217 76.6393 386.328C71.198 384.255 72.397 380.709 70.6447 380.064C68.9846 379.419 65.5723 382.183 59.3009 379.787C53.583 377.622 48.9717 372.417 51.554 365.6C53.3985 360.717 60.4077 356.387 72.5353 360.994C74.6565 361.823 75.5788 362.283 76.5471 359.842C77.4233 357.585 79.1294 352.795 75.9476 351.597C71.7975 350.031 68.5696 357.309 62.4366 355.006C60.2232 354.176 59.1626 351.965 59.9926 349.754C62.2061 343.904 75.3021 344.503 81.8962 346.991C85.8158 348.465 96.0067 354.084 92.0871 364.402L89.4587 371.312L89.5048 371.22ZM66.4946 369.469C65.8029 371.266 66.0334 373.569 68.0624 374.306C70.6908 375.273 71.982 372.555 72.7659 370.483C73.3192 368.963 74.057 367.258 72.1203 366.521C69.7686 365.646 67.3707 367.258 66.4946 369.423L66.4946 369.469Z" fill="white"/>
<path d="M109.564 353.992C106.567 353.163 103.8 350.906 104.768 347.405C106.105 342.707 116.02 343.49 119.616 344.503C122.475 345.332 126.211 347.405 125.196 350.952C123.628 356.48 113.576 355.144 109.518 353.992L109.564 353.992ZM116.389 383.15C113.991 391.533 119.063 389.645 118.002 393.422C116.619 398.258 107.627 395.679 104.399 394.758C92.2255 391.257 92.5021 388.355 92.9633 386.651C93.7011 384.117 96.6523 384.808 98.1279 382.827C99.7418 380.616 102.831 370.39 102.831 367.535C102.877 364.863 99.0502 364.633 99.9724 361.408C101.402 356.387 120.031 359.381 120.723 359.612C122.844 360.211 122.475 361.869 122.014 363.343L116.342 383.104L116.389 383.15Z" fill="white"/>
<path d="M144.056 391.073C142.627 398.074 145.301 397.337 144.748 400.101C143.826 404.569 134.234 402.45 131.283 401.851C128.378 401.253 121 399.732 121.922 395.403C122.66 391.948 125.334 395.725 126.994 388.677L129.531 377.899C130.776 372.602 126.026 373.431 126.81 369.561C127.594 365.738 144.978 365.554 146.408 365.876C147.976 366.199 148.714 367.765 148.437 369.239C148.345 369.654 148.206 370.068 148.114 370.529C147.93 371.404 148.114 372.463 149.175 372.694C150.327 372.924 151.296 371.542 153.048 370.344C154.8 369.193 157.291 368.133 161.395 368.963C176.335 372.049 170.802 386.19 169.234 397.291C168.404 403.049 171.632 402.358 170.986 405.49C170.709 406.78 170.387 409.866 156.783 407.056C154.201 406.504 147.192 405.214 148.068 401.206C148.621 398.627 150.742 400.331 152.08 395.725C153.509 390.658 157.89 379.557 151.111 378.129C146.5 377.162 145.901 382.229 145.209 385.499L144.056 391.073Z" fill="white"/>
<path d="M205.294 391.119C206.032 383.933 201.052 387.526 201.513 383.058C202.112 377.254 219.451 377.392 220.096 377.438C222.909 377.714 222.909 378.451 222.909 380.985C222.909 381.86 222.632 383.564 223.877 383.657C225.63 383.841 227.336 378.175 233.653 378.774C238.587 379.281 241.446 383.242 240.939 388.079C240.432 393.007 235.867 396.462 231.025 395.955C226.275 395.495 225.353 391.165 223.462 390.98C221.387 390.796 221.295 395.725 221.157 397.061C220.926 399.272 220.834 402.358 220.926 405.168C221.064 408.438 226.829 407.01 226.367 411.432C225.906 416.039 219.404 415.762 211.335 414.979C207.968 414.657 197.962 413.782 198.469 408.715C198.792 405.628 202.158 405.997 203.219 403.51C204.003 401.713 204.648 397.567 204.833 395.541L205.294 391.119Z" fill="white"/>
<path d="M264.687 402.266C264.549 405.214 264.595 409.774 268.561 409.958C273.864 410.189 273.402 403.233 273.541 399.686C273.633 397.245 273.864 394.113 273.541 391.718C273.08 388.033 269.437 389.092 269.575 386.006C269.76 381.676 284.608 381.538 287.421 381.63C290.095 381.722 291.11 383.334 291.017 385.914C290.925 388.263 290.695 390.566 290.602 392.915L290.003 407.701C289.819 412.123 293.969 410.235 293.83 413.782C293.646 418.802 280.504 419.678 276.446 419.493C270.774 419.263 274.694 414.979 271.742 414.887C270.036 414.795 266.901 419.125 260.445 418.848C246.426 418.296 248.087 407.287 248.548 396.232C249.009 384.946 243.706 389.691 243.936 384.808C244.121 380.11 262.704 380.616 263.304 380.662C265.379 380.755 265.563 381.722 265.471 383.564L264.687 402.266Z" fill="white"/>
<path d="M317.163 384.762C317.163 385.131 317.117 385.96 317.717 385.914C318.455 385.914 322.374 381.261 328.83 381.169C336.669 381.031 343.402 387.48 343.586 397.199C343.817 409.774 334.548 419.77 321.867 419.954C312.598 420.138 308.125 415.394 306.972 415.44C305.774 415.44 304.621 416.591 302.177 416.637C301.162 416.637 299.963 416.361 299.917 415.21C299.917 414.012 301.347 411.663 301.162 402.082L300.84 382.505C300.747 378.221 295.26 380.248 295.214 376.056C295.122 371.127 309.37 367.581 315.503 367.442C317.486 367.442 317.44 368.963 317.394 370.575L317.21 384.808L317.163 384.762ZM321.037 392.685C317.809 392.731 317.486 395.403 317.532 397.89C317.763 412.169 318.593 413.367 321.544 413.275C326.386 413.183 327.124 407.655 327.078 403.878C327.032 400.423 325.925 392.547 321.037 392.639L321.037 392.685Z" fill="white"/>
</g>
<defs>
<clipPath id="clip0_1_52">
<rect width="420" height="535" fill="white" transform="translate(535 3.05176e-05) rotate(90)"/>
</clipPath>
</defs>
</svg>
