<?xml version="1.0" encoding="UTF-8" standalone="no"?>
<svg
   width="890.15997"
   height="500.32898"
   viewBox="0 0 890.15997 500.32898"
   fill="none"
   version="1.1"
   id="svg3"
   sodipodi:docname="Group 1.svg"
   xmlns:inkscape="http://www.inkscape.org/namespaces/inkscape"
   xmlns:sodipodi="http://sodipodi.sourceforge.net/DTD/sodipodi-0.dtd"
   xmlns="http://www.w3.org/2000/svg"
   xmlns:svg="http://www.w3.org/2000/svg">
  <defs
     id="defs3" />
  <sodipodi:namedview
     id="namedview3"
     pagecolor="#ffffff"
     bordercolor="#000000"
     borderopacity="0.25"
     inkscape:showpageshadow="2"
     inkscape:pageopacity="0.0"
     inkscape:pagecheckerboard="0"
     inkscape:deskcolor="#d1d1d1" />
  <path
     d="m 648.1,413.48998 c 0.74,-33.806 -5.75,-71.521 -11.03,-96.189 -3.17,-15.16 -5.97,-25.407 -6.39,-26.886 v -0.211 c 11.14,-3.962 24.96,-10.829 30.51,-19.333 9.13,-13.84 13.19,-58.738 8.33,-74.638 -10.29,-34.176 -56.2,-45.955 -82.69,-25.196 -21.8,17.009 -23.59,30.743 -25.97,56.625 -0.95,10.195 -2.37,5.124 -7.91,8.98 -6.18,4.279 -4.44,13.839 1.69,17.431 2.21,1.321 6.91,1.743 8.39,3.275 1.16,1.162 3.01,8.874 4.32,11.463 2.64,5.123 7.39,12.307 12.67,14.895 2.8,1.321 8.55,1.163 8.13,4.385 -0.79,5.44 -10.66,-0.106 -13.2,-1.479 -12.4,-6.445 -27.86,-16.956 -39.31,-25.196 -2.54,-1.744 -18.21,-13.1 -18.68,-14.157 -1.01,-1.901 2.37,-6.655 -0.53,-9.032 -1.06,-0.951 -8.29,-2.8 -10.82,-3.962 -3.06,-1.532 -6.12,-3.433 -9.29,-5.335 -20.11,-17.431 -30.24,-8.24 -34.09,-2.483 -0.21,0.212 -0.37,0.476 -0.48,0.634 h -0.15 l -5.39,-2.694 -1.84,2.325 -36.26,45.955 h 16.31 c 1.95,0 26.81,21.181 31.98,22.502 2.11,10.881 4.06,16.85 13.72,22.819 3.38,2.113 9.34,3.856 11.87,6.074 3.17,2.747 12.67,19.703 15.57,20.548 4.12,1.268 5.6,-6.867 9.45,-7.395 4.48,-0.528 21.37,3.592 27.49,4.226 7.13,0.898 14.52,0.792 21.64,1.637 -7.65,21.922 -13.46,44.424 -17.47,67.296 l -0.26,1.743 -0.21,0.951 v 0.422 H 446.82 c 0.16,-0.634 0.32,-1.268 0.42,-1.849 0.64,-3.433 0.69,-5.916 -0.37,-9.825 -4.69,-16.533 -19.21,-36.183 -24.91,-53.138 l -0.15,-43.896 h -24.65 c -1.64,0 -7.23,2.272 -7.55,4.543 v 39.194 c -6.12,17.378 -18.78,35.496 -24.27,52.664 -1.22,3.697 -1.32,6.814 -1.22,10.458 v 1.849 h -3.8 v -34.545 h -47.7 l 4.38,-12.044 h 24.11 v -11.674 h -44.17 v 11.674 h 5.23 l -4.38,9.825 c -17.68,-7.554 -22.7,-15.318 -23.01,-15.899 -0.79,-0.951 -1.27,-1.796 -1.48,-2.43 -0.79,-2.166 1.69,-3.381 1.79,-5.758 0.06,-3.645 -4.22,-5.229 -4.16,-6.338 0,-2.113 5.06,-5.6 -3.43,-8.029 11.29,-7.818 -2.59,-10.037 -3.07,-12.202 l 2.54,-8.927 c 1.16,-2.007 2.85,0.634 3.74,1.532 2.64,2.641 11.14,14.737 13.41,15.318 3.53,0.951 7.23,-6.867 9.45,-7.237 l 8.18,6.181 6.96,-6.92 -6.33,-8.346 6.33,-8.346 c -3.32,-3.856 -25.54,-29.58 -27.81,-29.158 l -5.96,4.173 -14.83,-16.427 3.11,-4.12 c -3.54,-2.483 -5.28,-10.301 -10.03,-7.079 -2.21,1.479 -24.22,23.506 -24.75,25.197 -0.74,2.905 5.97,7.5 8.02,9.719 2.33,-2.007 10.98,-9.191 10.98,-1.479 0,2.007 -5.28,5.969 -6.81,8.029 -6.54,8.768 -6.07,16.744 -6.07,27.309 -3.53,0.475 -8.6,4.278 -11.87,4.067 -1.85,-0.159 -3.9,-1.69 -6.49,-1.796 -10.29,-0.581 -21.95,0.475 -31.72,0.053 -9.71,-0.476 -20.68,-12.625 -27.07,-19.65 -1.69,-1.902 -11.45,-12.941 -10.5,-14.315 13.88,-10.036 20.32,5.969 31.71,10.036 21.8,7.712 35.26,-16.85 41.22,-33.911 7.86,-2.007 18.05,0.528 19.9,-9.772 2.53,-13.734 -10.66,-9.139 -12.25,-17.96 -0.89,-4.859 5.12,-18.435 4.75,-25.883 -0.47,-15.952 -16.94,-35.285 -30.66,-42.363 -43.7,-22.502 -65.02,19.597 -72.19,56.308 -2.69,14.104 -3.7,22.186 4.32,34.969 -4.32,7.025 -8.91,5.123 -14.72,7.553 -5.28,2.271 -17.68,12.572 -22.38,16.798 -38.94,34.439 -59.63,82.877 -68.87,133.322 l 1.17,2.219 h 15.88 c 3.64,0 -0.53,15.212 -1.27,17.801 -3.32,10.511 -11.5,22.819 -18.36,31.376 -5.91,7.501 -20.16,16.428 -13.67,25.988 h 878.67 v -86.839 z m -70.3,-180.017 -10.97,0.951 c -2.75,-0.951 -1.9,-12.414 -1.59,-15.108 0.37,-3.486 2.8,-13.945 8.34,-11.779 3.54,1.268 4.22,6.444 4.22,7.448 z m -356.43,-10.459 c 8.29,1.532 1.95,30.109 -4.85,35.549 -1.48,1.162 -5.6,2.113 -6.97,1.215 -7.6,-6.603 3.64,-38.19 11.82,-36.764 z m -127.66,248.95 c -2.11,9.402 -8.13,18.752 -4.96,28.365 h -7.39 c 0.32,-12.888 -19.21,-14.261 -28.55,-16.903 9.5,-17.378 20.06,-34.704 18.1,-55.463 l 1.59,-1.637 22.11,0.951 c 3.96,14.79 2.48,29.897 -0.9,44.687 z m 176,-78.599 h -46.6 l -1.05,13.786 h -23.33 v 93.178 h -37.52 c -0.58,-0.158 -4.22,-5.387 -6.76,-7.025 -9.55,-6.233 -24.85,-8.927 -36.04,-8.874 6.39,-19.861 6.49,-41.254 1.06,-61.379 6.49,1.056 7.75,-5.969 7.49,-11.146 -0.32,-4.912 -2.59,-4.542 -3.8,-7.923 -10.03,-26.147 -3.22,-53.35 9.02,-77.226 l 3.17,0.423 c 16.78,14.368 32.4,27.415 55.41,30.056 l 4.49,13.998 c 6.44,1.479 18.89,-10.459 25.65,-11.199 4.59,-0.528 15.14,7.29 21.63,4.913 6.49,11.832 16.42,17.642 25.81,25.988 0.69,0.687 2.01,-0.053 1.37,2.43 z m 155.79,-18.91 c -6.91,-0.634 -14.67,3.169 -21.06,3.697 -2.53,0.159 -18.78,-2.271 -18.89,-4.12 1.16,-3.486 11.08,-19.491 11.08,-21.393 v -39.986 l 1.43,-1.373 h 16.25 v 38.56 c 0,2.535 12.19,23.717 11.19,24.615 z m 56.57,-113.409 c -14.35,-1.215 -28.81,-1.426 -42.85,-4.279 l 15.99,-21.023 c 3.64,-2.588 12.98,15.002 15.73,16.269 5.75,2.641 9.76,-2.905 12.98,-2.482 2.53,0.369 15.57,10.511 15.57,11.99 -1.16,1.638 -1.69,1.638 -3.54,1.532 -4.22,-0.211 -9.66,-1.69 -13.88,-2.007 z m 45.39,49.917 3.06,-6.867 c 0.26,-0.528 -0.11,-1.215 -0.74,-1.215 -3.8,-0.106 -15.25,-0.792 -19.53,-4.596 l -16.94,-5.018 7.44,-10.511 3.17,-4.437 c 1.21,-2.43 3.01,-5.599 3.48,-5.652 l 39.85,27.943 28.86,17.061 c -0.15,0.528 -0.36,1.004 -0.58,1.585 -16.3,-0.529 -32.4,-3.803 -48.07,-8.293 z m 63.27,50.709 c -0.58,3.011 -1.16,6.127 -1.79,9.032 v 0.053 c -1.21,6.444 -2.32,12.413 -2.9,16.586 l -9.71,6.022 -5.33,-10.987 c 0,0 0,-0.053 0.05,-0.106 0.1,-0.792 1.69,-9.508 7.02,-24.932 3.06,-8.821 7.44,-19.861 13.56,-32.749 l 6.07,3.38 c 0,0 -3.64,16.956 -6.97,33.701 z m 5.02,-110.715 c -7.6,5.757 -12.93,-11.41 -13.62,-17.062 -0.69,-6.391 1.32,-28.576 10.71,-26.728 11.61,2.272 12.09,36.765 2.91,43.79 z"
     fill="#005645"
     id="path1"
     sodipodi:nodetypes="ccccccccccccccccccccccccccsccccccccccccccccsccccccccccccccccccccccccccccccccccccscccccccccccccccccccsccccccccccscccccccccccccccccccccccccccccccccccscccscccccccccccccccccccccccccccccccccccc" />
  <path
     d="m 88.22,187.52298 25.6,8.692 H 65.37 l 17.25,-25.546 H 58.24 l 11.58,-16.271 -45.59,5.459 L 0,49.196785 353.53,0 l 26.32,118.98798 -289.09,32.866 -6.24,10.918 h 21 z"
     fill="#005645"
     id="path2" />
  <path
     d="m 90.45,76.778185 3.27,-0.4624 0.84,5.9408 c -0.57,0.5451 -1.33,1.0165 -2.29,1.414 -0.93,0.3948 -1.91,0.665 -2.94,0.8108 -1.31,0.1849 -2.58,0.1734 -3.83,-0.0347 -1.22,-0.2307 -2.34,-0.7088 -3.35,-1.4342 -1.01,-0.7452 -1.89,-1.7631 -2.61,-3.0538 -0.73,-1.3106 -1.24,-2.9461 -1.52,-4.9065 -0.28,-2.0397 -0.23,-3.7848 0.17,-5.2352 0.42,-1.4731 1.04,-2.6927 1.88,-3.659 0.83,-0.986 1.8,-1.7399 2.92,-2.2617 1.11,-0.5416 2.24,-0.8923 3.37,-1.0521 1.18,-0.1681 2.2,-0.2106 3.04,-0.1275 0.86,0.0803 1.57,0.2113 2.14,0.3931 l 0.88,6.1784 -3.27,0.4625 -0.48,-3.3863 c -0.63,-0.0121 -1.27,0.0281 -1.92,0.1205 -0.77,0.1093 -1.47,0.3602 -2.11,0.7525 -0.61,0.3697 -1.12,0.8866 -1.53,1.5508 -0.41,0.6641 -0.69,1.4713 -0.84,2.4214 -0.15,0.9304 -0.14,2.0095 0.03,3.2372 0.15,1.0694 0.42,2.0314 0.8,2.8861 0.38,0.8349 0.87,1.5341 1.45,2.0977 0.59,0.5636 1.26,0.9732 2.02,1.2288 0.76,0.2357 1.6,0.2892 2.51,0.1602 0.65,-0.0924 1.28,-0.2415 1.88,-0.4472 z m 5.6,-1.2469 c -0.18,-1.2475 -0.15,-2.3831 0.09,-3.4067 0.24,-1.0236 0.66,-1.9211 1.26,-2.6924 0.59,-0.7714 1.34,-1.3927 2.25,-1.8639 0.92,-0.4937 1.97,-0.8247 3.16,-0.9929 1.25,-0.1765 2.38,-0.1453 3.41,0.0936 1.04,0.2361 1.95,0.6531 2.72,1.2509 0.77,0.578 1.39,1.3283 1.86,2.251 0.5,0.9199 0.82,1.964 0.99,3.1324 0.18,1.2475 0.15,2.3831 -0.09,3.4067 -0.24,1.0236 -0.66,1.9211 -1.26,2.6924 -0.6,0.7714 -1.36,1.404 -2.28,1.8978 -0.9,0.4711 -1.94,0.7908 -3.13,0.959 -1.25,0.1765 -2.39,0.1467 -3.44,-0.0894 -1.02,-0.2389 -1.92,-0.6474 -2.69,-1.2254 -0.77,-0.5978 -1.4,-1.3566 -1.89,-2.2765 -0.48,-0.9227 -0.8,-1.9682 -0.96,-3.1366 z m 3.98,-0.5633 c 0.09,0.6535 0.26,1.2449 0.52,1.7741 0.26,0.5293 0.58,0.978 0.98,1.3462 0.39,0.3682 0.85,0.6375 1.36,0.8079 0.5,0.1506 1.06,0.1824 1.68,0.0955 1.14,-0.1625 2.02,-0.6606 2.63,-1.4942 0.63,-0.8364 0.83,-2.0467 0.61,-3.6309 -0.19,-1.3664 -0.69,-2.4178 -1.48,-3.1542 -0.79,-0.7562 -1.81,-1.0461 -3.06,-0.8695 -0.55,0.0785 -1.06,0.2404 -1.51,0.4859 -0.45,0.2257 -0.83,0.5519 -1.13,0.9786 -0.28,0.4239 -0.48,0.937 -0.6,1.5393 -0.12,0.6023 -0.12,1.3094 0,2.1213 z m 21,4.6026 -1.29,-9.0894 c -0.08,-0.5941 -0.19,-1.0637 -0.32,-1.409 -0.13,-0.365 -0.28,-0.6367 -0.45,-0.8151 -0.15,-0.201 -0.33,-0.3172 -0.53,-0.3486 -0.19,-0.054 -0.39,-0.067 -0.58,-0.039 -0.34,0.0477 -0.64,0.2014 -0.91,0.4613 -0.24,0.2571 -0.39,0.5609 -0.44,0.9116 l 1.52,10.7528 -3.57,0.5045 -2.1,-14.852 2.82,-0.3994 0.65,1.5749 0.09,-0.0126 c 0.22,-0.6163 0.58,-1.1434 1.11,-1.5811 0.52,-0.4575 1.17,-0.7409 1.94,-0.8502 0.65,-0.0925 1.3,-0.0224 1.94,0.2104 0.64,0.2328 1.12,0.7298 1.45,1.4911 0.2,-0.7352 0.58,-1.3244 1.14,-1.7677 0.56,-0.4632 1.2,-0.7452 1.91,-0.8461 0.54,-0.0756 1.03,-0.0637 1.46,0.0359 0.46,0.077 0.87,0.2811 1.24,0.6125 0.37,0.3315 0.68,0.8127 0.93,1.4438 0.27,0.6084 0.48,1.4176 0.62,2.4276 l 1.44,10.1587 -3.57,0.5045 -1.34,-9.5053 c -0.13,-0.8911 -0.37,-1.4939 -0.71,-1.8083 -0.33,-0.3172 -0.7,-0.4464 -1.12,-0.3875 -0.35,0.0504 -0.65,0.183 -0.88,0.3976 -0.24,0.1949 -0.38,0.4875 -0.42,0.8777 l 1.53,10.842 z m 11.94,-5.023 5.23,-0.7399 -1.18,-8.3171 -5.23,0.7399 -0.46,-3.2674 9.09,-1.2864 1.64,11.5845 5.49,-0.7777 0.47,3.2675 -14.59,2.0641 z m 2.3,-16.2633 c -0.08,-0.6139 0.07,-1.1709 0.46,-1.671 0.4,-0.5001 1,-0.8076 1.81,-0.9225 0.83,-0.1177 1.53,0.0062 2.09,0.3718 0.55,0.3656 0.87,0.8554 0.96,1.4692 0.09,0.6337 -0.08,1.1935 -0.52,1.6794 -0.44,0.4662 -1.07,0.7581 -1.91,0.8758 -0.81,0.1149 -1.47,0.0065 -1.98,-0.325 -0.51,-0.3514 -0.82,-0.844 -0.91,-1.4777 z m 12.48,2.3557 5.19,-0.7357 0.73,1.8974 0.12,-0.0168 c 0.36,-0.6982 0.94,-1.3451 1.72,-1.9409 0.78,-0.5958 1.77,-0.9777 2.96,-1.1459 0.73,-0.1037 1.43,-0.1014 2.09,0.007 0.68,0.1055 1.28,0.3538 1.8,0.7448 0.52,0.391 0.97,0.9643 1.34,1.72 0.38,0.7331 0.66,1.6739 0.82,2.8224 l 1.31,9.238 -3.86,0.5465 -1.2,-8.436 c -0.17,-1.2079 -0.57,-2.04 -1.2,-2.4962 -0.61,-0.459 -1.33,-0.6297 -2.16,-0.5119 -0.73,0.1037 -1.38,0.4168 -1.93,0.9393 -0.53,0.4999 -0.87,1.0822 -0.99,1.7467 l 1.36,9.6241 -3.86,0.5465 -1.64,-11.5846 -2.14,0.3027 z m 35.29,10.1537 c 0.16,1.0693 0.1,2.0267 -0.16,2.872 -0.25,0.8426 -0.66,1.5675 -1.24,2.1749 -0.56,0.6243 -1.27,1.1184 -2.13,1.4821 -0.83,0.3808 -1.77,0.6454 -2.82,0.794 -0.71,0.1009 -1.4,0.1367 -2.05,0.1076 -0.62,-0.0121 -1.22,-0.0695 -1.78,-0.172 -0.54,-0.1054 -1.02,-0.239 -1.45,-0.4007 -0.42,-0.142 -0.77,-0.2952 -1.03,-0.4596 l 1.09,-2.943 c 0.52,0.2496 1.13,0.4668 1.82,0.6515 0.72,0.2018 1.58,0.2312 2.59,0.0883 1.25,-0.1766 2.16,-0.5983 2.73,-1.265 0.57,-0.6668 0.78,-1.5348 0.63,-2.6042 l -0.13,-0.9505 -0.12,0.0168 c -0.29,0.5257 -0.76,0.9564 -1.42,1.2922 -0.67,0.3159 -1.45,0.5383 -2.36,0.6672 -0.95,0.1345 -1.86,0.1107 -2.71,-0.0714 -0.83,-0.1849 -1.59,-0.5324 -2.27,-1.0424 -0.68,-0.5298 -1.25,-1.2362 -1.72,-2.1193 -0.45,-0.8859 -0.76,-1.9526 -0.94,-3.2002 -0.19,-1.307 -0.16,-2.4921 0.07,-3.5552 0.26,-1.066 0.68,-1.9847 1.28,-2.7561 0.61,-0.794 1.38,-1.428 2.31,-1.9019 0.93,-0.4966 2.01,-0.8304 3.22,-1.0013 0.63,-0.0897 1.27,-0.1497 1.91,-0.18 0.64,-0.0501 1.24,-0.0747 1.81,-0.074 0.58,-0.0021 1.12,0.0227 1.61,0.0742 0.49,0.0318 0.9,0.0847 1.24,0.1586 z m -7.53,-1.8427 c 0.75,-0.1065 1.4,-0.3701 1.95,-0.7908 0.57,-0.4235 0.91,-0.9874 1.03,-1.6915 l -0.94,-6.6834 c -0.3,-0.0796 -0.7,-0.1126 -1.23,-0.0992 -0.5,-0.0091 -0.99,0.0185 -1.44,0.083 -0.56,0.0785 -1.07,0.2419 -1.54,0.4901 -0.45,0.2455 -0.83,0.5929 -1.15,1.0422 -0.31,0.4267 -0.52,0.9525 -0.66,1.5774 -0.11,0.6023 -0.12,1.3094 0,2.1214 0.1,0.7128 0.28,1.3339 0.54,1.8632 0.25,0.5292 0.57,0.9596 0.94,1.291 0.37,0.3314 0.76,0.5681 1.19,0.71 0.42,0.1222 0.86,0.1511 1.31,0.0866 z m 38.77,-6.7598 c -0.05,-0.396 -0.34,-0.6778 -0.87,-0.8454 -0.51,-0.1704 -1.14,-0.3041 -1.88,-0.4012 -0.74,-0.0972 -1.55,-0.1845 -2.43,-0.262 -0.88,-0.0973 -1.7,-0.2738 -2.47,-0.5293 -0.76,-0.2754 -1.43,-0.6553 -2.01,-1.1397 -0.55,-0.507 -0.89,-1.2061 -1.02,-2.0972 -0.1,-0.7327 -0.04,-1.3987 0.2,-1.998 0.26,-0.6021 0.64,-1.1305 1.14,-1.5853 0.52,-0.4773 1.15,-0.8696 1.89,-1.177 0.77,-0.3101 1.61,-0.5296 2.52,-0.6585 0.97,-0.1374 1.83,-0.1886 2.58,-0.1536 0.75,0.0349 1.41,0.1135 1.97,0.2359 0.59,0.1195 1.08,0.2814 1.5,0.4856 0.43,0.1816 0.79,0.3518 1.1,0.5106 l -1.26,2.8748 c -0.32,-0.1362 -0.7,-0.2653 -1.12,-0.3875 -0.4,-0.1448 -0.83,-0.2656 -1.29,-0.3623 -0.44,-0.0996 -0.9,-0.1653 -1.39,-0.197 -0.47,-0.0346 -0.93,-0.0196 -1.39,0.0449 -0.83,0.1177 -1.49,0.3219 -1.97,0.6126 -0.49,0.2907 -0.7,0.6637 -0.63,1.1192 0.05,0.3564 0.33,0.61 0.83,0.7605 0.53,0.1478 1.16,0.2702 1.9,0.3674 0.74,0.0773 1.55,0.1646 2.43,0.2619 0.89,0.0974 1.71,0.2738 2.47,0.5293 0.76,0.2358 1.42,0.5973 1.97,1.0845 0.58,0.4844 0.93,1.1623 1.05,2.0336 0.21,1.505 -0.17,2.7716 -1.16,3.7999 -0.97,1.0056 -2.53,1.6612 -4.69,1.9667 -1.7,0.241 -3.21,0.2023 -4.53,-0.1162 -1.3,-0.3411 -2.38,-0.7951 -3.22,-1.3619 l 1.38,-3.0444 c 0.29,0.1814 0.66,0.3813 1.12,0.5997 0.47,0.1958 0.99,0.3647 1.55,0.5069 0.57,0.1421 1.16,0.2504 1.78,0.3247 0.63,0.0518 1.24,0.0356 1.84,-0.0485 0.63,-0.0897 1.16,-0.2756 1.59,-0.5579 0.42,-0.2823 0.6,-0.6809 0.52,-1.1958 z m 6.44,-4.3047 c -0.17,-1.2475 -0.14,-2.3831 0.1,-3.4067 0.24,-1.0236 0.65,-1.9211 1.25,-2.6924 0.6,-0.7714 1.35,-1.3927 2.25,-1.8639 0.92,-0.4937 1.98,-0.8247 3.16,-0.9929 1.25,-0.1765 2.39,-0.1453 3.41,0.0936 1.04,0.2361 1.95,0.6531 2.72,1.2509 0.77,0.578 1.39,1.3283 1.87,2.251 0.49,0.9199 0.82,1.964 0.99,3.1324 0.17,1.2475 0.14,2.3831 -0.1,3.4067 -0.24,1.0236 -0.66,1.9211 -1.25,2.6924 -0.6,0.7714 -1.36,1.404 -2.28,1.8978 -0.9,0.4711 -1.95,0.7908 -3.14,0.959 -1.24,0.1765 -2.39,0.1467 -3.43,-0.0894 -1.03,-0.2389 -1.92,-0.6474 -2.69,-1.2254 -0.77,-0.5978 -1.4,-1.3566 -1.9,-2.2765 -0.47,-0.9227 -0.79,-1.9682 -0.96,-3.1366 z m 3.98,-0.5633 c 0.1,0.6535 0.27,1.2449 0.53,1.7741 0.25,0.5293 0.58,0.978 0.97,1.3462 0.4,0.3682 0.85,0.6375 1.36,0.8079 0.51,0.1506 1.07,0.1824 1.68,0.0955 1.15,-0.1625 2.03,-0.6606 2.64,-1.4942 0.63,-0.8364 0.83,-2.0467 0.61,-3.6309 -0.2,-1.3664 -0.69,-2.4178 -1.48,-3.1542 -0.79,-0.7562 -1.82,-1.0461 -3.06,-0.8695 -0.56,0.0785 -1.06,0.2404 -1.51,0.4859 -0.45,0.2257 -0.83,0.5519 -1.13,0.9786 -0.29,0.4239 -0.49,0.937 -0.6,1.5393 -0.12,0.6023 -0.12,1.3094 -0.01,2.1213 z m 43.02,-2.694 c -0.06,-0.3961 -0.35,-0.6779 -0.88,-0.8455 -0.51,-0.1703 -1.13,-0.3041 -1.88,-0.4012 -0.74,-0.0971 -1.55,-0.1845 -2.43,-0.262 -0.88,-0.0973 -1.7,-0.2737 -2.46,-0.5293 -0.77,-0.2753 -1.44,-0.6552 -2.01,-1.1396 -0.56,-0.5071 -0.9,-1.2061 -1.03,-2.0972 -0.1,-0.7327 -0.03,-1.3988 0.2,-1.9981 0.26,-0.6021 0.64,-1.1305 1.14,-1.5852 0.52,-0.4774 1.15,-0.8697 1.9,-1.177 0.76,-0.3101 1.6,-0.5297 2.51,-0.6586 0.97,-0.1373 1.83,-0.1885 2.58,-0.1536 0.76,0.0349 1.41,0.1136 1.98,0.2359 0.58,0.1196 1.08,0.2815 1.49,0.4856 0.43,0.1816 0.8,0.3518 1.1,0.5106 l -1.26,2.8749 c -0.32,-0.1362 -0.69,-0.2654 -1.11,-0.3876 -0.41,-0.1448 -0.84,-0.2655 -1.3,-0.3623 -0.44,-0.0996 -0.9,-0.1652 -1.39,-0.197 -0.47,-0.0345 -0.93,-0.0196 -1.39,0.0449 -0.83,0.1177 -1.49,0.3219 -1.97,0.6126 -0.48,0.2907 -0.69,0.6638 -0.63,1.1192 0.05,0.3565 0.33,0.61 0.84,0.7606 0.52,0.1477 1.15,0.2702 1.9,0.3673 0.73,0.0773 1.54,0.1647 2.43,0.262 0.88,0.0973 1.7,0.2737 2.46,0.5293 0.77,0.2357 1.42,0.5972 1.98,1.0844 0.57,0.4844 0.92,1.1623 1.04,2.0336 0.21,1.505 -0.17,2.7717 -1.16,3.7999 -0.97,1.0057 -2.53,1.6613 -4.69,1.9667 -1.7,0.2411 -3.21,0.2023 -4.53,-0.1162 -1.3,-0.3411 -2.37,-0.795 -3.22,-1.3618 l 1.39,-3.0444 c 0.28,0.1813 0.66,0.3812 1.11,0.5996 0.47,0.1958 0.99,0.3648 1.56,0.5069 0.56,0.1422 1.15,0.2504 1.77,0.3248 0.63,0.0517 1.25,0.0356 1.84,-0.0485 0.63,-0.0897 1.16,-0.2757 1.59,-0.558 0.42,-0.2823 0.6,-0.6809 0.53,-1.1957 z m 6.43,-4.3047 c -0.17,-1.2476 -0.14,-2.3832 0.1,-3.4068 0.24,-1.0235 0.66,-1.921 1.25,-2.6924 0.6,-0.7714 1.35,-1.3927 2.25,-1.8638 0.92,-0.4938 1.98,-0.8248 3.17,-0.9929 1.24,-0.1766 2.38,-0.1454 3.4,0.0935 1.05,0.2361 1.95,0.6531 2.73,1.2509 0.76,0.578 1.39,1.3284 1.86,2.2511 0.49,0.9198 0.82,1.964 0.99,3.1323 0.17,1.2476 0.14,2.3832 -0.1,3.4067 -0.23,1.0236 -0.65,1.9211 -1.25,2.6925 -0.6,0.7714 -1.36,1.4039 -2.28,1.8977 -0.9,0.4712 -1.95,0.7908 -3.13,0.959 -1.25,0.1766 -2.4,0.1468 -3.44,-0.0893 -1.02,-0.239 -1.92,-0.6474 -2.69,-1.2254 -0.77,-0.5978 -1.4,-1.3567 -1.9,-2.2766 -0.47,-0.9227 -0.79,-1.9682 -0.96,-3.1365 z m 3.99,-0.5634 c 0.09,0.6535 0.26,1.2449 0.52,1.7742 0.26,0.5292 0.58,0.9779 0.98,1.3462 0.39,0.3682 0.85,0.6375 1.35,0.8078 0.51,0.1506 1.07,0.1824 1.68,0.0956 1.15,-0.1626 2.03,-0.6607 2.64,-1.4943 0.63,-0.8364 0.83,-2.0467 0.61,-3.6309 -0.2,-1.3664 -0.69,-2.4178 -1.48,-3.1542 -0.79,-0.7562 -1.81,-1.046 -3.06,-0.8695 -0.56,0.0785 -1.06,0.2405 -1.51,0.486 -0.45,0.2256 -0.83,0.5518 -1.13,0.9785 -0.29,0.4239 -0.49,0.937 -0.6,1.5393 -0.12,0.6023 -0.12,1.3094 0,2.1213 z M 103.28,112.23998 c -0.06,-0.396 -0.35,-0.678 -0.88,-0.845 -0.51,-0.171 -1.13,-0.304 -1.87,-0.401 -0.74,-0.098 -1.55,-0.185 -2.43,-0.262 -0.89,-0.098 -1.71,-0.274 -2.47,-0.53 -0.77,-0.275 -1.44,-0.655 -2.01,-1.139 -0.56,-0.507 -0.9,-1.206 -1.03,-2.098 -0.1,-0.732 -0.03,-1.398 0.21,-1.998 0.25,-0.602 0.63,-1.13 1.13,-1.585 0.52,-0.477 1.15,-0.87 1.9,-1.177 0.76,-0.31 1.6,-0.53 2.51,-0.658 0.97,-0.138 1.83,-0.189 2.58,-0.154 0.76,0.035 1.41,0.114 1.98,0.236 0.58,0.119 1.08,0.281 1.49,0.485 0.43,0.182 0.8,0.352 1.1,0.511 l -1.26,2.875 c -0.32,-0.136 -0.69,-0.265 -1.11,-0.388 -0.41,-0.144 -0.84,-0.265 -1.3,-0.362 -0.43,-0.1 -0.9,-0.165 -1.39,-0.197 -0.47,-0.034 -0.93,-0.02 -1.38,0.045 -0.84,0.118 -1.49,0.322 -1.98,0.613 -0.48,0.29 -0.69,0.663 -0.63,1.119 0.05,0.356 0.33,0.61 0.84,0.76 0.52,0.148 1.16,0.271 1.9,0.368 0.74,0.077 1.55,0.164 2.43,0.262 0.88,0.097 1.7,0.273 2.47,0.529 0.76,0.236 1.41,0.597 1.97,1.084 0.57,0.485 0.92,1.163 1.04,2.034 0.22,1.505 -0.17,2.772 -1.16,3.8 -0.96,1.006 -2.53,1.661 -4.69,1.967 -1.7,0.241 -3.21,0.202 -4.53,-0.117 -1.3,-0.341 -2.37,-0.795 -3.22,-1.361 l 1.39,-3.045 c 0.29,0.181 0.66,0.381 1.11,0.6 0.47,0.196 0.99,0.365 1.56,0.507 0.56,0.142 1.16,0.25 1.77,0.324 0.64,0.052 1.25,0.036 1.84,-0.048 0.64,-0.09 1.17,-0.276 1.59,-0.558 0.43,-0.282 0.6,-0.681 0.53,-1.196 z m 6.44,-4.304 c -0.18,-1.248 -0.15,-2.384 0.09,-3.407 0.24,-1.024 0.66,-1.921 1.26,-2.693 0.59,-0.771 1.34,-1.392 2.25,-1.863495 0.92,-0.4937 1.97,-0.8247 3.16,-0.9929 1.25,-0.1765 2.38,-0.1454 3.41,0.0936 1.04,0.2361 1.95,0.6531 2.72,1.250795 0.77,0.578 1.39,1.328 1.86,2.251 0.5,0.92 0.82,1.964 0.99,3.132 0.18,1.248 0.15,2.384 -0.09,3.407 -0.24,1.024 -0.66,1.921 -1.26,2.693 -0.6,0.771 -1.36,1.404 -2.28,1.897 -0.9,0.472 -1.94,0.791 -3.13,0.959 -1.25,0.177 -2.39,0.147 -3.44,-0.089 -1.02,-0.239 -1.92,-0.647 -2.69,-1.225 -0.77,-0.598 -1.4,-1.357 -1.89,-2.277 -0.48,-0.923 -0.8,-1.968 -0.96,-3.136 z m 3.98,-0.564 c 0.09,0.654 0.26,1.245 0.52,1.774 0.26,0.53 0.58,0.978 0.98,1.346 0.39,0.369 0.85,0.638 1.36,0.808 0.5,0.151 1.06,0.183 1.68,0.096 1.14,-0.163 2.02,-0.661 2.63,-1.494 0.63,-0.837 0.83,-2.047 0.61,-3.631 -0.19,-1.367 -0.69,-2.418 -1.48,-3.154 -0.79,-0.757 -1.81,-1.046 -3.06,-0.87 -0.55,0.079 -1.06,0.241 -1.51,0.486 -0.45,0.226 -0.83,0.552 -1.13,0.979 -0.28,0.423 -0.48,0.937 -0.6,1.539 -0.12,0.602 -0.12,1.309 0,2.121 z m 43.01,-2.694 c -0.06,-0.396 -0.35,-0.678 -0.88,-0.845 -0.51,-0.171 -1.13,-0.304 -1.87,-0.402 -0.74,-0.097 -1.55,-0.184 -2.43,-0.261 -0.88,-0.098 -1.71,-0.274 -2.47,-0.53 -0.77,-0.275 -1.44,-0.655 -2.01,-1.139 -0.56,-0.507 -0.9,-1.207 -1.02,-2.097695 -0.11,-0.7327 -0.04,-1.3987 0.2,-1.998 0.26,-0.6021 0.64,-1.1305 1.14,-1.5852 0.52,-0.4774 1.15,-0.8697 1.89,-1.177 0.76,-0.3102 1.6,-0.5297 2.51,-0.6586 0.97,-0.1373 1.84,-0.1885 2.59,-0.1536 0.75,0.0349 1.41,0.1136 1.97,0.2359 0.58,0.1196 1.08,0.2814 1.49,0.4856 0.43,0.1816 0.8,0.3518 1.11,0.5106 l -1.26,2.8749 c -0.33,-0.1362 -0.7,-0.2654 -1.12,-0.3876 -0.4,-0.1448 -0.84,-0.2655 -1.29,-0.3623 -0.44,-0.0996 -0.91,-0.1652 -1.39,-0.197 -0.47,-0.0345 -0.94,-0.0196 -1.39,0.0449 -0.83,0.1177 -1.49,0.3219 -1.98,0.6126 -0.48,0.2907 -0.69,0.6638 -0.63,1.1192 0.06,0.3565 0.33,0.61 0.84,0.7605 0.53,0.1478 1.16,0.2703 1.9,0.3674 0.74,0.0773 1.55,0.164395 2.43,0.262395 0.88,0.097 1.71,0.273 2.47,0.529 0.76,0.236 1.42,0.597 1.97,1.084 0.57,0.485 0.92,1.163 1.05,2.034 0.21,1.505 -0.18,2.772 -1.16,3.8 -0.97,1.005 -2.54,1.661 -4.69,1.967 -1.71,0.241 -3.22,0.202 -4.53,-0.117 -1.31,-0.341 -2.38,-0.795 -3.23,-1.362 l 1.39,-3.044 c 0.29,0.181 0.66,0.381 1.11,0.6 0.48,0.195 1,0.364 1.56,0.507 0.57,0.142 1.16,0.25 1.77,0.324 0.64,0.052 1.25,0.036 1.85,-0.048 0.63,-0.09 1.16,-0.276 1.58,-0.558 0.43,-0.282 0.6,-0.681 0.53,-1.196 z m 6.44,-4.305 c -0.18,-1.247095 -0.15,-2.382695 0.09,-3.406295 0.24,-1.0235 0.66,-1.921 1.26,-2.6924 0.6,-0.7714 1.35,-1.3927 2.25,-1.8638 0.92,-0.4938 1.97,-0.8248 3.16,-0.9929 1.25,-0.1766 2.38,-0.1454 3.41,0.0935 1.04,0.2361 1.95,0.6531 2.72,1.2509 0.77,0.578 1.39,1.3284 1.86,2.251 0.5,0.9199 0.83,1.964 0.99,3.1324 0.18,1.2476 0.15,2.383595 -0.09,3.406595 -0.24,1.024 -0.66,1.921 -1.26,2.693 -0.59,0.771 -1.35,1.404 -2.27,1.897 -0.91,0.471 -1.95,0.791 -3.14,0.959 -1.25,0.177 -2.39,0.147 -3.44,-0.089 -1.02,-0.239 -1.92,-0.647 -2.68,-1.225 -0.78,-0.598 -1.41,-1.357 -1.9,-2.277 -0.48,-0.923 -0.8,-1.968 -0.96,-3.137 z m 3.98,-0.562895 c 0.09,0.653895 0.27,1.244895 0.52,1.773895 0.26,0.529 0.59,0.978 0.98,1.346 0.4,0.369 0.85,0.638 1.36,0.808 0.5,0.151 1.06,0.183 1.68,0.096 1.15,-0.163 2.03,-0.661 2.63,-1.494 0.63,-0.837 0.84,-2.047 0.61,-3.631295 -0.19,-1.3664 -0.68,-2.4178 -1.47,-3.1542 -0.8,-0.7562 -1.82,-1.0461 -3.07,-0.8695 -0.55,0.0785 -1.05,0.2405 -1.5,0.486 -0.46,0.2256 -0.83,0.5518 -1.14,0.9785 -0.28,0.4239 -0.48,0.937 -0.6,1.5393 -0.11,0.6023 -0.12,1.3094 0,2.1213 z m 43.01,-2.694 c -0.05,-0.396 -0.35,-0.6779 -0.87,-0.8454 -0.51,-0.1704 -1.14,-0.3041 -1.88,-0.4013 -0.74,-0.0971 -1.55,-0.1844 -2.43,-0.262 -0.88,-0.0973 -1.7,-0.2737 -2.47,-0.5293 -0.76,-0.2753 -1.43,-0.6552 -2.01,-1.1396 -0.55,-0.507 -0.9,-1.2061 -1.02,-2.0972 -0.11,-0.7327 -0.04,-1.3987 0.2,-1.998 0.26,-0.6022 0.64,-1.1306 1.14,-1.5853 0.52,-0.4773 1.15,-0.8697 1.89,-1.177 0.77,-0.3101 1.6,-0.5296 2.52,-0.6586 0.97,-0.1373 1.83,-0.1885 2.58,-0.1536 0.75,0.035 1.41,0.1136 1.97,0.236 0.58,0.1195 1.08,0.2814 1.5,0.4856 0.42,0.1815 0.79,0.3517 1.1,0.5105 l -1.26,2.8749 c -0.32,-0.1362 -0.7,-0.2654 -1.12,-0.3875 -0.4,-0.1448 -0.83,-0.2656 -1.29,-0.3624 -0.44,-0.0995 -0.9,-0.1652 -1.39,-0.1969 -0.47,-0.0346 -0.93,-0.0196 -1.39,0.0448 -0.83,0.1177 -1.49,0.3219 -1.97,0.6126 -0.49,0.2907 -0.7,0.6638 -0.63,1.1193 0.05,0.3564 0.33,0.6099 0.83,0.7605 0.53,0.1478 1.16,0.2702 1.9,0.3673 0.74,0.0774 1.55,0.1647 2.43,0.262 0.89,0.0973 1.71,0.2738 2.47,0.5293 0.76,0.2358 1.42,0.5973 1.97,1.0845 0.58,0.4844 0.92,1.1622 1.05,2.0336 0.21,1.505 -0.18,2.7716 -1.16,3.800095 -0.97,1.005 -2.53,1.661 -4.69,1.966 -1.7,0.241 -3.21,0.203 -4.53,-0.116 -1.3,-0.341 -2.38,-0.795 -3.22,-1.362 l 1.38,-3.043995 c 0.29,0.1814 0.66,0.3813 1.12,0.5997 0.47,0.1957 0.99,0.3647 1.55,0.5069 0.57,0.1421 1.16,0.2504 1.78,0.3247 0.63,0.0518 1.24,0.0356 1.84,-0.0485 0.63,-0.0897 1.16,-0.2757 1.59,-0.558 0.42,-0.2822 0.6,-0.6808 0.52,-1.1957 z m 6.44,-4.3047 c -0.17,-1.2476 -0.14,-2.3831 0.1,-3.4067 0.23,-1.0236 0.65,-1.9211 1.25,-2.6925 0.6,-0.7713 1.35,-1.3926 2.25,-1.8638 0.92,-0.4938 1.98,-0.8247 3.16,-0.9929 1.25,-0.1765 2.39,-0.1454 3.41,0.0936 1.04,0.2361 1.95,0.653 2.72,1.2508 0.77,0.578 1.39,1.3284 1.87,2.2511 0.49,0.9199 0.82,1.964 0.98,3.1323 0.18,1.2476 0.15,2.3832 -0.09,3.4068 -0.24,1.0235 -0.66,1.921 -1.25,2.6924 -0.6,0.7714 -1.36,1.404 -2.28,1.8977 -0.9,0.4712 -1.95,0.7909 -3.14,0.959 -1.24,0.1766 -2.39,0.1468 -3.43,-0.0893 -1.03,-0.2389 -1.92,-0.6474 -2.69,-1.2254 -0.77,-0.5978 -1.41,-1.3567 -1.9,-2.2765 -0.47,-0.9227 -0.79,-1.9682 -0.96,-3.1366 z m 3.98,-0.5633 c 0.09,0.6535 0.27,1.2448 0.53,1.7741 0.25,0.5292 0.58,0.978 0.97,1.3462 0.4,0.3682 0.85,0.6375 1.36,0.8079 0.51,0.1505 1.07,0.1824 1.68,0.0955 1.15,-0.1626 2.03,-0.6606 2.64,-1.4942 0.63,-0.8364 0.83,-2.0467 0.6,-3.6309 -0.19,-1.3664 -0.68,-2.4178 -1.47,-3.1542 -0.8,-0.7563 -1.82,-1.0461 -3.06,-0.8695 -0.56,0.0784 -1.06,0.2404 -1.51,0.4859 -0.45,0.2257 -0.83,0.5519 -1.14,0.9786 -0.28,0.4239 -0.48,0.937 -0.6,1.5393 -0.11,0.6023 -0.11,1.3094 0,2.1213 z m 13.83,-1.9574 c -0.17,-1.2476 -0.14,-2.3831 0.1,-3.4067 0.23,-1.0236 0.65,-1.9211 1.25,-2.6924 0.6,-0.7714 1.35,-1.3927 2.25,-1.8639 0.92,-0.4937 1.98,-0.8247 3.16,-0.9929 1.25,-0.1765 2.39,-0.1454 3.41,0.0936 1.04,0.2361 1.95,0.6531 2.72,1.2509 0.77,0.578 1.39,1.3283 1.87,2.251 0.49,0.9199 0.82,1.964 0.99,3.1324 0.17,1.2475 0.14,2.3831 -0.1,3.4067 -0.24,1.0236 -0.66,1.921 -1.25,2.6924 -0.6,0.7714 -1.36,1.404 -2.28,1.8978 -0.9,0.4711 -1.95,0.7908 -3.14,0.9589 -1.24,0.1766 -2.39,0.1468 -3.43,-0.0893 -1.03,-0.2389 -1.92,-0.6474 -2.69,-1.2254 -0.77,-0.5978 -1.4,-1.3566 -1.9,-2.2765 -0.47,-0.9227 -0.79,-1.9682 -0.96,-3.1366 z m 3.98,-0.5633 c 0.1,0.6535 0.27,1.2449 0.53,1.7741 0.25,0.5293 0.58,0.978 0.97,1.3462 0.4,0.3682 0.85,0.6375 1.36,0.8079 0.51,0.1505 1.07,0.1824 1.68,0.0955 1.15,-0.1625 2.03,-0.6606 2.64,-1.4942 0.63,-0.8364 0.83,-2.0467 0.61,-3.6309 -0.2,-1.3664 -0.69,-2.4178 -1.48,-3.1542 -0.8,-0.7563 -1.82,-1.0461 -3.06,-0.8695 -0.56,0.0784 -1.06,0.2404 -1.51,0.4859 -0.45,0.2257 -0.83,0.5519 -1.13,0.9786 -0.29,0.4239 -0.49,0.937 -0.6,1.5393 -0.12,0.6023 -0.12,1.3094 -0.01,2.1213 z m 12.1,-9.2867 5.2,-0.7357 0.72,1.8974 0.12,-0.0168 c 0.36,-0.6981 0.94,-1.3451 1.72,-1.9409 0.79,-0.5957 1.77,-0.9777 2.96,-1.1458 0.74,-0.1037 1.43,-0.1014 2.09,0.0069 0.69,0.1056 1.29,0.3538 1.81,0.7448 0.52,0.391 0.96,0.9644 1.33,1.7201 0.39,0.733 0.66,1.6738 0.82,2.8224 l 1.31,9.2379 -3.86,0.5465 -1.19,-8.4359 c -0.17,-1.208 -0.58,-2.04 -1.21,-2.4962 -0.61,-0.459 -1.33,-0.6297 -2.16,-0.512 -0.73,0.1037 -1.37,0.4168 -1.93,0.9394 -0.53,0.4999 -0.86,1.0821 -0.99,1.7466 l 1.36,9.6241 -3.86,0.5465 -1.64,-11.5845 -2.14,0.3027 z m 25.78,9.5007 c -0.1,-0.6931 0.05,-1.2685 0.43,-1.7262 0.37,-0.4776 0.92,-0.7668 1.63,-0.8677 0.75,-0.1064 1.38,0.0174 1.87,0.3716 0.49,0.3344 0.79,0.8481 0.89,1.5412 0.09,0.6931 -0.05,1.2784 -0.42,1.7559 -0.38,0.4776 -0.94,0.7696 -1.7,0.8761 -0.71,0.1009 -1.31,-0.0258 -1.81,-0.38 -0.49,-0.3542 -0.79,-0.8778 -0.89,-1.5709 z"
     fill="#ffffff"
     id="path3" />
</svg>
