<?xml version="1.0" encoding="UTF-8"?>
<svg id="Layer_1" data-name="Layer 1" xmlns="http://www.w3.org/2000/svg" viewBox="0 0 77.67 77.67">
  <defs>
    <style>
      .cls-1 {
        fill: #295747;
      }

      .cls-2 {
        fill: #b3d2ba;
      }
    </style>
  </defs>
  <circle class="cls-2" cx="38.84" cy="38.84" r="38.84"/>
  <path class="cls-1" d="M59.58,64.46c-2.15.27-6.04.43-8.72-1.32-.33-.22-.35-.7-.03-.92,4.6-3.27,32.2-24.55,8.34-48.41C38.19-7.19,6.9,20.77,6.9,39.21c0,11.91,4.54,28.2,29.57,28.2,0,0,9.11,10.16,23.47-2.12.36-.31.11-.89-.36-.83Z"/>
  <path class="cls-2" d="M26.76,32.61l1.57,19.33c.02.22-.14.43-.36.47l-4.01.73s-.06,0-.08,0c-.2,0-.39-.14-.43-.35l-3.83-18.44-10.05,2.21c-.24.05-.47-.1-.52-.33l-1.49-6.76c-.03-.12,0-.24.06-.34.07-.1.17-.17.29-.19l30.94-5.3c.12-.02.24.01.34.08s.16.18.17.3l.48,4.8c.02.22-.12.41-.33.47l-12.77,3.32Z"/>
  <path class="cls-2" d="M56.88,42.7c-1.6-.17-3.19-.76-4.68-1.75-2.48-1.65-4.37-4.26-5.33-7.34-2.04-6.53.79-13.25,6.31-14.97,2.4-.75,5.03-.46,7.4.81,1.17.62,1.61,2.08.98,3.24-.62,1.17-2.08,1.61-3.24.98-.87-.47-2.23-.93-3.72-.46-2.99.93-4.41,4.96-3.16,8.97.63,2.03,1.85,3.73,3.41,4.78,1.41.94,2.93,1.23,4.28.8,2.4-.75,3.78-3.48,3.6-6.59l-6.82,2.13c-1.26.39-2.61-.31-3-1.58-.39-1.26.31-2.61,1.58-3l9.39-2.93c1.26-.4,2.61.31,3,1.58,2.04,6.53-.79,13.25-6.31,14.97-1.21.38-2.46.49-3.7.36Z"/>
  <path class="cls-2" d="M51.68,44.72c-.13-.42-.45-.72-.89-.85l-.31-.09-.17.27c-.76,1.17-1.56,1.83-2.53,2.08-.13.03-.38.08-.66.13,1.02-.83,1.77-2.07,1.99-3.39.22-1.33-.15-2.51-1.03-3.33-1.04-.95-3.1-1.14-4.42-.41-.93.52-1.35,1.43-1.15,2.49.1.53.95,1.13,1.44,1.45l.19.12.21-.08c.17-.07.24-.2.29-.29.07-.13.15-.28.39-.34.13-.03.4.04.48.1.1.11.13.33.09.58-.07.46-.36.94-.67,1.12-.46.27-1,.33-1.59.15-1.5-.44-2.95-2.15-3.46-3.16,0-.01-.01-.03-.02-.04.08-.02.18-.05.27-.1,3.41-1.57,4.66-4.91,4.11-7.25-.29-1.23-1.19-2.12-2.54-2.52-2.14-.64-5.14.05-6.69,1.53-.7.67-2.81,2.69-.92,7.69-.16.07-.36.16-.49.21-.17.07-.32.13-.39.17-2.32,1.21-3.64,3.52-3.37,5.88.24,2.04,1.6,3.56,3.65,4.09.52.13,1.08.2,1.65.2,1.78,0,3.7-.64,5.4-1.84.13-.09.26-.21.41-.34.14-.13.39-.35.48-.4.14.03.46.18.64.27.21.09.4.18.53.22,2.65.84,6.27.58,8.36-1.9.43-.51.98-1.57.72-2.41ZM35.62,46.66c-.61-.92-.58-2.18.04-3.23.2.24.47.61.62.82.18.24.32.43.4.52.62.72,1.28,1.38,1.95,1.95.07.06.19.15.4.29.06.04.14.1.22.15-.29.17-.8.36-1.08.42-1.08.24-2.02-.09-2.56-.92ZM38.23,34.73c.21-.47.55-.61.8-.64.05,0,.1,0,.14,0,.35,0,.7.17.94.46.73.88.35,2.76-.49,3.85-.18.24-.58.63-.85.82-.12-.29-.28-.7-.31-.82-.34-1.05-.73-2.58-.23-3.67Z"/>
</svg>