<?xml version="1.0" encoding="UTF-8"?>
<svg id="Layer_1" data-name="Layer 1" xmlns="http://www.w3.org/2000/svg" viewBox="0 0 61.87 65.03">
  <defs>
    <style>
      .cls-1 {
        fill: #005645;
      }
      @media (prefers-color-scheme: dark) {
        .cls-1 { fill: #b3d2ba; }
      }
    </style>
  </defs>
  <path class="cls-1" d="M32.14,40.69c-.21-.14-.33-.23-.4-.29-.67-.57-1.33-1.23-1.95-1.95-.08-.09-.22-.28-.4-.52-.15-.21-.43-.57-.62-.81-.63,1.05-.65,2.31-.05,3.23.54.82,1.48,1.16,2.56.92.28-.06.79-.26,1.08-.42-.08-.06-.16-.11-.22-.16ZM33.22,28.22c-.24-.29-.59-.46-.94-.46-.05,0-.1.01-.14.01-.25.04-.59.17-.8.64-.5,1.1-.11,2.62.23,3.67.04.12.2.53.31.82.27-.19.67-.59.85-.83.84-1.09,1.23-2.97.49-3.85ZM33.22,28.22c-.24-.29-.59-.46-.94-.46-.05,0-.1.01-.14.01-.25.04-.59.17-.8.64-.5,1.1-.11,2.62.23,3.67.04.12.2.53.31.82.27-.19.67-.59.85-.83.84-1.09,1.23-2.97.49-3.85ZM31.74,40.4c-.67-.57-1.33-1.23-1.95-1.95-.08-.09-.22-.28-.4-.52-.15-.21-.43-.57-.62-.81-.63,1.05-.65,2.31-.05,3.23.54.82,1.48,1.16,2.56.92.28-.06.79-.26,1.08-.42-.08-.06-.16-.11-.22-.16-.21-.14-.33-.23-.4-.29ZM52.69,58.14c-2.16.27-6.04.43-8.72-1.32-.33-.22-.35-.7-.03-.93,4.59-3.27,32.2-24.55,8.34-48.41C35.08-9.72,10.96,5.96,2.82,22.32l29.15-4.99c.12-.02.24.01.34.08.1.08.16.19.17.31l.48,4.79c.02.22-.12.42-.33.47l-12.77,3.32,1.57,19.32c.02.23-.14.43-.36.47l-4,.73s-.06.01-.08.01c-.21,0-.39-.14-.43-.35l-3.83-18.44-10.04,2.21c-.24.05-.47-.09-.53-.33l-.88-4c-.83,2.39-1.28,4.75-1.28,6.97,0,11.92,4.54,28.2,29.58,28.2,0,0,9.11,10.16,23.47-2.12.35-.3.1-.89-.36-.83ZM46.29,12.32c2.4-.75,5.03-.46,7.4.81,1.17.63,1.61,2.08.99,3.25-.63,1.17-2.08,1.61-3.25.98-.87-.46-2.22-.92-3.71-.46-2.99.93-4.41,4.96-3.16,8.97.63,2.03,1.84,3.72,3.41,4.77,1.41.94,2.93,1.23,4.29.81,2.39-.75,3.78-3.48,3.59-6.6l-6.82,2.13c-1.26.4-2.61-.31-3-1.57-.4-1.27.31-2.61,1.57-3.01l9.39-2.92c1.26-.4,2.61.31,3,1.57,2.04,6.54-.79,13.25-6.31,14.97-1.21.38-2.45.5-3.7.36-1.6-.17-3.19-.76-4.67-1.75-2.48-1.66-4.37-4.26-5.33-7.34-2.04-6.53.79-13.25,6.31-14.97ZM35.7,42.72c-.13-.04-.31-.13-.52-.22-.18-.08-.51-.23-.64-.27-.1.06-.35.28-.49.41s-.28.25-.41.34c-1.7,1.2-3.62,1.84-5.4,1.84-.57,0-1.13-.06-1.65-.19-2.05-.53-3.41-2.05-3.65-4.09-.27-2.36,1.05-4.67,3.37-5.88.08-.04.22-.11.39-.18.13-.05.33-.13.49-.2-1.88-5.01.22-7.02.92-7.7,1.55-1.48,4.55-2.16,6.69-1.53,1.35.4,2.25,1.29,2.54,2.52.55,2.34-.7,5.67-4.11,7.25-.1.04-.19.07-.28.09.01,0,.01.03.02.04.51,1.02,1.96,2.72,3.46,3.16.6.18,1.13.13,1.6-.14.3-.19.59-.67.66-1.13.04-.25.01-.46-.08-.58-.08-.06-.36-.13-.49-.1-.24.06-.32.21-.39.34-.05.09-.12.23-.29.29l-.2.09-.19-.12c-.5-.31-1.34-.92-1.44-1.45-.21-1.06.21-1.96,1.14-2.49,1.32-.74,3.39-.55,4.42.41.89.81,1.26,1.99,1.04,3.32-.22,1.32-.98,2.57-1.99,3.4.27-.05.53-.1.65-.13.97-.25,1.77-.91,2.53-2.08l.18-.27.31.09c.45.13.76.43.89.85.26.84-.29,1.9-.72,2.41-2.09,2.48-5.7,2.74-8.36,1.9ZM33.22,28.22c-.24-.29-.59-.46-.94-.46-.05,0-.1.01-.14.01-.25.04-.59.17-.8.64-.5,1.1-.11,2.62.23,3.67.04.12.2.53.31.82.27-.19.67-.59.85-.83.84-1.09,1.23-2.97.49-3.85ZM31.74,40.4c-.67-.57-1.33-1.23-1.95-1.95-.08-.09-.22-.28-.4-.52-.15-.21-.43-.57-.62-.81-.63,1.05-.65,2.31-.05,3.23.54.82,1.48,1.16,2.56.92.28-.06.79-.26,1.08-.42-.08-.06-.16-.11-.22-.16-.21-.14-.33-.23-.4-.29ZM32.14,40.69c-.21-.14-.33-.23-.4-.29-.67-.57-1.33-1.23-1.95-1.95-.08-.09-.22-.28-.4-.52-.15-.21-.43-.57-.62-.81-.63,1.05-.65,2.31-.05,3.23.54.82,1.48,1.16,2.56.92.28-.06.79-.26,1.08-.42-.08-.06-.16-.11-.22-.16ZM33.22,28.22c-.24-.29-.59-.46-.94-.46-.05,0-.1.01-.14.01-.25.04-.59.17-.8.64-.5,1.1-.11,2.62.23,3.67.04.12.2.53.31.82.27-.19.67-.59.85-.83.84-1.09,1.23-2.97.49-3.85ZM33.22,28.22c-.24-.29-.59-.46-.94-.46-.05,0-.1.01-.14.01-.25.04-.59.17-.8.64-.5,1.1-.11,2.62.23,3.67.04.12.2.53.31.82.27-.19.67-.59.85-.83.84-1.09,1.23-2.97.49-3.85ZM32.14,40.69c-.21-.14-.33-.23-.4-.29-.67-.57-1.33-1.23-1.95-1.95-.08-.09-.22-.28-.4-.52-.15-.21-.43-.57-.62-.81-.63,1.05-.65,2.31-.05,3.23.54.82,1.48,1.16,2.56.92.28-.06.79-.26,1.08-.42-.08-.06-.16-.11-.22-.16Z"/>
</svg>